<svg xmlns:dc="http://purl.org/dc/elements/1.1/" xmlns:cc="http://creativecommons.org/ns#" xmlns:rdf="http://www.w3.org/1999/02/22-rdf-syntax-ns#" xmlns:svg="http://www.w3.org/2000/svg" xmlns="http://www.w3.org/2000/svg" xmlns:sodipodi="http://sodipodi.sourceforge.net/DTD/sodipodi-0.dtd" xmlns:inkscape="http://www.inkscape.org/namespaces/inkscape" version="1.1" inkscape:version="0.91 r13725" sodipodi:docname="Logo DeÌpartement Charente copie.svg" width="600" height="137.1999969482422" style=""><rect id="backgroundrect" width="100%" height="100%" x="0" y="0" fill="none" stroke="none"/>
  <metadata id="metadata28">
    <rdf:RDF>
      <cc:Work rdf:about="">
        <dc:format>image/svg+xml</dc:format>
        <dc:type rdf:resource="http://purl.org/dc/dcmitype/StillImage"/>
        <dc:title/>
      </cc:Work>
    </rdf:RDF>
  </metadata>
  <defs id="defs26"/>
  <sodipodi:namedview pagecolor="#ffffff" bordercolor="#666666" borderopacity="1" objecttolerance="10" gridtolerance="10" guidetolerance="10" inkscape:pageopacity="0" inkscape:pageshadow="2" inkscape:window-width="1440" inkscape:window-height="790" id="namedview24" showgrid="false" inkscape:zoom="2.3676095" inkscape:cx="122.45" inkscape:cy="28" inkscape:window-x="0" inkscape:window-y="1" inkscape:window-maximized="1" inkscape:current-layer="svg2"/>
  
<g class="currentLayer" style=""><title>Layer 1</title>
    
    
    
  <g class="selected"><g id="g4273" stroke-width="0" class="" fill="#ffffff" fill-opacity="1">
      <path d="M13.867431938648224,87.4857177734375 L8.47967654466629,113.20000457763672 c-0.4897959232330322,2.448979616165161 -0.7346938848495483,3.6734695434570312 -0.7346938848495483,4.408163070678711 c0,1.2244898080825806 0.4897959232330322,1.7142857313156128 1.4693877696990967,1.7142857313156128 c0.4897959232330322,0 0.7346938848495483,0 0.9795918464660645,-0.2448979616165161 l0.4897959232330322,4.163265228271484 c-1.4693877696990967,0.4897959232330322 -2.9387755393981934,0.7346938848495483 -4.653061389923096,0.7346938848495483 c-3.6734695434570312,0 -5.63265323638916,-1.959183692932129 -5.63265323638916,-4.897959232330322 c0,-0.9795918464660645 0.2448979616165161,-2.693877696990967 0.7346938848495483,-4.408163070678711 L6.76539021730423,88.46530151367188 c0.9795918464660645,-4.163265228271484 1.2244898080825806,-7.3469390869140625 0.4897959232330322,-9.306122779846191 l7.3469390869140625,-2.448979616165161 c0.4897959232330322,2.2040815353393555 0.2448979616165161,6.857142925262451 -0.7346938848495483,10.775510787963867 z" id="path4263" inkscape:connector-curvature="0" stroke-width="0" fill="#ffffff" fill-opacity="1"/>
      <path d="m36.39612990617752,91.15727233886719 c-4.163265228271484,0 -7.588011741638184,1.471300482749939 -10.771684646606445,4.410076141357422 c-4.408163070678711,4.163265228271484 -7.102996826171875,11.019451141357422 -7.102996826171875,17.386796951293945 c0,7.591836452484131 4.407207012176514,11.757018089294434 11.264349937438965,11.757018089294434 c5.387755393981934,0 9.06313705444336,-1.4703452587127686 12.981504440307617,-4.654018878936768 l-2.2050368785858154,-4.410076141357422 c-2.9387755393981934,2.2040815353393555 -5.635523319244385,3.4295265674591064 -9.064095497131348,3.4295265674591064 c-3.4285714626312256,0 -5.873725891113281,-1.9601387977600098 -5.873725891113281,-5.878506183624268 c0,-0.9795918464660645 0.4878832697868347,-2.6900522708892822 0.4878832697868347,-3.424746036529541 c0.7346938848495483,0 2.2031242847442627,0.24394285678863525 3.917409896850586,0.24394285678863525 c6.36734676361084,0 10.775510787963867,-1.2235347032546997 13.469388008117676,-3.917412281036377 c1.959183692932129,-1.7142857313156128 2.941645622253418,-3.9221928119659424 2.941645622253418,-6.3711724281311035 c0,-5.63265323638916 -3.9221928119659424,-8.571428298950195 -10.044641494750977,-8.571428298950195 zm-0.9757665395736694,5.1466827392578125 c2.9387755393981934,0 3.917412281036377,1.4684325456619263 3.917412281036377,3.917412281036377 c0,1.4693877696990967 -0.4897959232330322,2.4461092948913574 -1.2244898080825806,3.1808032989501953 C36.399002373218536,104.87155151367188 33.94810515642166,105.36326599121094 30.029739677906036,105.36326599121094 C29.050146400928497,105.36326599121094 27.826614677906036,105.11932373046875 27.336818993091583,105.11932373046875 c1.2244898080825806,-5.877551078796387 4.410076141357422,-8.8153715133667 8.083545684814453,-8.8153715133667 z" id="path4261" inkscape:connector-curvature="0" stroke-width="0" fill="#ffffff" fill-opacity="1"/>
      <path d="m75.09191924333572,80.1368637084961 l-9.308034896850586,43.34980773925781 l11.020408630371094,0 c8.326530456542969,0 12.73469352722168,-1.4703452587127686 17.14285659790039,-5.878509044647217 c5.142857074737549,-4.897959232330322 8.327486038208008,-14.693878173828125 8.327486038208008,-22.040817260742188 c0,-5.63265323638916 -1.2244898080825806,-8.814414024353027 -3.6734695434570312,-11.508292198181152 c-2.9387755393981934,-3.18367338180542 -6.856185436248779,-3.9221928119659424 -13.71332836151123,-3.9221928119659424 l-9.795918464660645,0 zM80.9704287648201,85.77143096923828 l4.654016494750977,0 c3.6734695434570312,0 5.877551078796387,0.7366065382957458 7.3469390869140625,3.1855862140655518 c1.2244898080825806,1.7142857313156128 1.4655625820159912,3.917412281036377 0.9757665395736694,6.366392135620117 c0,3.4285714626312256 -1.2225772142410278,11.998085021972656 -5.385842323303223,17.6307373046875 C86.60212737321854,115.8929214477539 83.17451506853104,117.60816192626953 78.52144652605057,117.60816192626953 l-4.410078525543213,0 l6.859057903289795,-31.836734771728516 z" id="path4257" inkscape:connector-curvature="0" stroke-width="0" fill="#ffffff" fill-opacity="1"/>
      <path d="M133.1308291554451,76.21945190429688 L119.1735537648201,84.54693603515625 l1.9610964059829712,3.917409896850586 l14.693878173828125,-6.366389274597168 l-2.6977028846740723,-5.878509044647217 zm-8.8153715133667,14.937820434570312 c-4.163265228271484,0 -7.59279203414917,1.471300482749939 -10.77646541595459,4.410076141357422 c-4.408163070678711,4.163265228271484 -7.098215579986572,11.019451141357422 -7.098215579986572,17.386796951293945 c0,7.591836452484131 4.407208442687988,11.757018089294434 11.264350891113281,11.757018089294434 c5.387755393981934,0 9.058354377746582,-1.4703452587127686 12.97672176361084,-4.654018878936768 l-2.20025634765625,-4.410076141357422 c-2.9387755393981934,2.2040815353393555 -5.635523319244385,3.4295265674591064 -9.064095497131348,3.4295265674591064 c-3.4285714626312256,0 -5.878506183624268,-1.9601387977600098 -5.878506183624268,-5.878506183624268 c0,-0.9795918464660645 0.24776816368103027,-2.6900522708892822 0.4926661252975464,-3.424746036529541 c0.7346938848495483,0 2.2031242847442627,0.24394285678863525 3.917409896850586,0.24394285678863525 c6.36734676361084,0 10.775510787963867,-1.2235347032546997 13.469388008117676,-3.917412281036377 c1.959183692932129,-1.7142857313156128 2.9368629455566406,-3.9221928119659424 2.9368629455566406,-6.3711724281311035 c0,-5.63265323638916 -3.917412281036377,-8.571428298950195 -10.039860725402832,-8.571428298950195 zm-0.9805469512939453,5.1466827392578125 c2.9387755393981934,0 3.9221928119659424,1.4684325456619263 3.9221928119659424,3.917412281036377 c0,1.4693877696990967 -0.4897959232330322,2.4461092948913574 -1.2244898080825806,3.1808032989501953 C124.31832152605057,104.87155151367188 121.86743193864822,105.36326599121094 117.9490664601326,105.36326599121094 c-0.9795918464660645,0 -2.2031242847442627,-0.24394285678863525 -2.692919969558716,-0.24394285678863525 c1.2244898080825806,-5.877551078796387 4.405292987823486,-8.8153715133667 8.07876205444336,-8.8153715133667 z" id="path4253" inkscape:connector-curvature="0" stroke-width="0" fill="#ffffff" fill-opacity="1"/>
      <path d="m149.54185515642166,90.66938781738281 l-6.366392135620117,2.692919969558716 c0.7346938848495483,1.959183692932129 0.7346938848495483,3.9212374687194824 0,7.839605331420898 L135.5798037648201,137.1999969482422 l7.102995872497559,-1.7123730182647705 l1.9610989093780518,-9.795918464660645 c0.2448979616165161,-0.7346938848495483 0.4878808259963989,-2.4528048038482666 0.4878808259963989,-2.6977028846740723 c1.4693877696990967,0.9795918464660645 3.9202826023101807,1.4732130765914917 6.859057903289795,1.4732130765914917 c4.163265228271484,0 8.325572967529297,-1.963008999824524 11.264348030090332,-5.1466827392578125 c3.6734695434570312,-4.163265228271484 6.122448921203613,-11.997130393981934 6.122448921203613,-17.87468147277832 c0,-6.36734676361084 -2.9397332668304443,-10.28858470916748 -8.327488899230957,-10.28858470916748 c-3.918367385864258,0 -8.082588195800781,1.962053894996643 -10.77646541595459,5.390625476837158 c0.2448979616165161,-2.2040815353393555 0.0029387755785137415,-4.654018878936768 -0.7318236827850342,-5.878509044647217 zm8.571428298950195,6.366389274597168 c2.693877696990967,0 3.6734695434570312,1.4703452587127686 3.6734695434570312,4.654018878936768 c0,4.163265228271484 -1.4684325456619263,10.52869987487793 -3.917412281036377,13.957271575927734 c-1.2244898080825806,1.959183692932129 -3.432396650314331,3.4295265674591064 -6.3711724281311035,3.4295265674591064 c-1.959183692932129,0 -4.1623101234436035,-0.732778787612915 -5.141902446746826,-1.71237051486969 L149.54185515642166,102.9142837524414 c2.693877696990967,-3.918367385864258 6.122448921203613,-5.878509044647217 8.571428298950195,-5.878509044647217 z" id="path4247" inkscape:connector-curvature="0" stroke-width="0" fill="#ffffff" fill-opacity="1"/>
      <path d="m193.1308291554451,91.15727233886719 c-5.142857074737549,0 -9.30420970916748,1.7181110382080078 -12.732782363891602,5.1466827392578125 c-4.163265228271484,4.163265228271484 -6.859055519104004,11.016582489013672 -6.859055519104004,18.118623733520508 c0,6.612245082855225 3.4295265674591064,10.044641494750977 8.327486038208008,10.044641494750977 c4.163265228271484,0 7.347896575927734,-1.7142857313156128 9.55197811126709,-4.897959232330322 c0,1.959183692932129 0.7346938848495483,3.6725142002105713 2.448979616165161,5.141902446746826 l5.634565830230713,-4.166135311126709 c-1.7142857313156128,-1.7142857313156128 -1.959183692932129,-3.1798481941223145 -1.2244898080825806,-7.098215579986572 l2.692922353744507,-12.737564086914062 c0.4897959232330322,-2.2040815353393555 1.2216196060180664,-5.633608341217041 1.9563134908676147,-7.102995872497559 c-2.448979616165161,-1.7142857313156128 -6.122448921203613,-2.448979616165161 -9.795918464660645,-2.448979616165161 zm-0.9757665395736694,5.390625476837158 c0.9795918464660645,0 2.2021689414978027,0.2429877519607544 2.9368629455566406,0.4878808259963989 L191.6623995900154,112.710205078125 c-1.4693877696990967,3.18367338180542 -4.652103424072266,6.122448921203613 -7.590878963470459,6.122448921203613 c-2.2040815353393555,0 -3.4295289516448975,-1.4693877696990967 -3.4295289516448975,-4.897959232330322 c0,-4.408163070678711 1.2273600101470947,-10.52869987487793 4.166135311126709,-13.957271575927734 c2.448979616165161,-2.693877696990967 4.408163070678711,-3.4295265674591064 7.3469390869140625,-3.4295265674591064 z" id="path4243" inkscape:connector-curvature="0" stroke-width="0" fill="#ffffff" fill-opacity="1"/>
      <path d="m227.41844207048416,98.01632690429688 c-0.7346938848495483,-0.4897959232330322 -1.2244898080825806,-0.4897959232330322 -2.2040815353393555,-0.4897959232330322 c-2.2040815353393555,0 -4.653061389923096,1.7142857313156128 -7.3469390869140625,5.63265323638916 l-4.408163070678711,20.571428298950195 l-6.857142925262451,0 l4.653061389923096,-21.306121826171875 C212.2347872853279,98.01632690429688 212.2347872853279,95.56734466552734 211.50007659196854,93.36326599121094 L217.8674471974373,90.66938781738281 c0.7346938848495483,1.7142857313156128 0.9795918464660645,3.918367385864258 0.4897959232330322,6.122448921203613 c2.9387755393981934,-3.6734695434570312 6.36734676361084,-5.877551078796387 9.551020622253418,-5.877551078796387 c1.2244898080825806,0 1.7142857313156128,0.2448979616165161 2.693877696990967,0.4897959232330322 L227.41844207048416,98.01632690429688 z" id="path4239" inkscape:connector-curvature="0" stroke-width="0" fill="#ffffff" fill-opacity="1"/>
      <path d="m247.25520354509354,96.79183959960938 l-6.122448921203613,0 l-3.6734695434570312,17.14285659790039 c-0.2448979616165161,1.2244898080825806 -0.4897959232330322,2.2040815353393555 -0.4897959232330322,3.18367338180542 c0,1.959183692932129 0.9795918464660645,2.693877696990967 2.9387755393981934,2.693877696990967 c0.9795918464660645,0 2.2040815353393555,-0.2448979616165161 3.18367338180542,-0.7346938848495483 l0,4.408163070678711 c-2.2040815353393555,0.9795918464660645 -4.408163070678711,1.2244898080825806 -6.612245082855225,1.2244898080825806 c-4.408163070678711,0 -6.612245082855225,-2.2040815353393555 -6.612245082855225,-5.387755393981934 c0,-1.2244898080825806 0.2448979616165161,-2.693877696990967 0.4897959232330322,-4.408163070678711 l3.918367385864258,-18.12244987487793 l-3.6734695434570312,0 l0.9795918464660645,-4.897959232330322 l3.6734695434570312,0 c0.7346938848495483,-2.9387755393981934 1.2244898080825806,-5.387755393981934 2.2040815353393555,-7.836734771728516 l7.3469390869140625,-1.7142857313156128 c-0.9795918464660645,2.693877696990967 -1.959183692932129,6.36734676361084 -2.693877696990967,9.551020622253418 l7.591836452484131,0 l-2.448979616165161,4.897959232330322 z" id="path4237" inkscape:connector-curvature="0" stroke-width="0" fill="#ffffff" fill-opacity="1"/>
      <path d="m268.8052676320076,91.15727233886719 c-4.163265228271484,0 -7.59279203414917,1.471300482749939 -10.77646541595459,4.410076141357422 c-4.408163070678711,4.163265228271484 -7.098220348358154,11.019451141357422 -7.098220348358154,17.386796951293945 c0,7.591836452484131 4.407208442687988,11.757018089294434 11.264350891113281,11.757018089294434 c5.387755393981934,0 9.058359146118164,-1.4703452587127686 12.976726531982422,-4.654018878936768 l-2.200261354446411,-4.410076141357422 c-2.9387755393981934,2.2040815353393555 -5.635518550872803,3.4295265674591064 -9.06408977508545,3.4295265674591064 c-3.4285714626312256,0 -5.878506183624268,-1.9601387977600098 -5.878506183624268,-5.878506183624268 c0,-0.9795918464660645 0.2477632761001587,-2.6900522708892822 0.4926612377166748,-3.424746036529541 c0.7346938848495483,0 2.2031264305114746,0.24394285678863525 3.917412281036377,0.24394285678863525 c6.36734676361084,0 10.775510787963867,-1.2235347032546997 13.469388008117676,-3.917412281036377 c1.7142857313156128,-1.7142857313156128 2.691967487335205,-3.9221928119659424 2.9368650913238525,-6.3711724281311035 c0,-5.63265323638916 -3.917412281036377,-8.571428298950195 -10.039860725402832,-8.571428298950195 zm-1.2244898080825806,5.1466827392578125 c2.9387755393981934,0 4.1623101234436035,1.4684325456619263 3.917412281036377,3.917412281036377 c0,1.4693877696990967 -0.4897959232330322,2.4461092948913574 -1.2244898080825806,3.1808032989501953 c-1.7142857313156128,1.4693877696990967 -4.160399913787842,1.9610964059829712 -8.078767776489258,1.9610964059829712 c-0.9795918464660645,0 -2.2031264305114746,-0.24394285678863525 -2.692922353744507,-0.24394285678863525 c1.2244898080825806,-5.877551078796387 4.405298233032227,-8.8153715133667 8.078767776489258,-8.8153715133667 z" id="path4235" inkscape:connector-curvature="0" stroke-width="0" fill="#ffffff" fill-opacity="1"/>
      <path d="m327.581726372242,101.44490051269531 l-4.653061389923096,22.285715103149414 l-6.857142925262451,0 l4.653061389923096,-21.551021575927734 c0.2448979616165161,-1.2244898080825806 0.4897959232330322,-2.2040815353393555 0.4897959232330322,-2.9387755393981934 c0,-1.4693877696990967 -0.7346938848495483,-2.2040815353393555 -2.448979616165161,-2.2040815353393555 c-2.448979616165161,0 -5.63265323638916,2.448979616165161 -8.081632614135742,5.877551078796387 l-4.408163070678711,20.816326141357422 l-6.612245082855225,0 l4.408163070678711,-21.06122589111328 c0.2448979616165161,-1.4693877696990967 0.4897959232330322,-2.693877696990967 0.4897959232330322,-3.4285714626312256 c0,-1.4693877696990967 -0.4897959232330322,-2.2040815353393555 -2.2040815353393555,-2.2040815353393555 c-2.2040815353393555,0 -5.387755393981934,2.2040815353393555 -8.326530456542969,5.877551078796387 l-4.408163070678711,20.816326141357422 l-6.612245082855225,0 l4.653061389923096,-22.285715103149414 c0.7346938848495483,-3.4285714626312256 0.7346938848495483,-5.877551078796387 0,-8.081632614135742 l6.36734676361084,-2.693877696990967 c0.7346938848495483,1.4693877696990967 0.9795918464660645,3.918367385864258 0.4897959232330322,5.877551078796387 c3.6734695434570312,-3.918367385864258 7.591836452484131,-5.63265323638916 11.020408630371094,-5.63265323638916 c3.4285714626312256,0 5.387755393981934,1.959183692932129 5.63265323638916,5.63265323638916 c3.918367385864258,-4.163265228271484 7.591836452484131,-5.63265323638916 11.020408630371094,-5.63265323638916 c3.6734695434570312,0 6.122448921203613,2.448979616165161 6.122448921203613,6.36734676361084 c-0.2448979616165161,1.2244898080825806 -0.4897959232330322,2.9387755393981934 -0.7346938848495483,4.163265228271484 z" id="path4231" inkscape:connector-curvature="0" stroke-width="0" fill="#ffffff" fill-opacity="1"/>
      <path d="m351.8266299366951,91.15727233886719 c-4.163265228271484,0 -7.59279203414917,1.471300482749939 -10.77646541595459,4.410076141357422 c-4.408163070678711,4.163265228271484 -7.102995872497559,11.019451141357422 -7.102995872497559,17.386796951293945 c0,7.591836452484131 4.411983966827393,11.757018089294434 11.269126892089844,11.757018089294434 c5.387755393981934,0 9.058359146118164,-1.4703452587127686 12.976726531982422,-4.654018878936768 l-2.2050368785858154,-4.410076141357422 c-2.9387755393981934,2.2040815353393555 -5.630743026733398,3.4295265674591064 -9.059313774108887,3.4295265674591064 c-3.4285714626312256,0 -5.878506183624268,-1.9601387977600098 -5.878506183624268,-5.878506183624268 c0,-0.9795918464660645 0.2477632761001587,-2.6900522708892822 0.4926612377166748,-3.424746036529541 c0.7346938848495483,0 2.2031264305114746,0.24394285678863525 3.917412281036377,0.24394285678863525 c6.36734676361084,0 10.775510787963867,-1.2235347032546997 13.469388008117676,-3.917412281036377 c1.7142857313156128,-1.7142857313156128 2.691967487335205,-3.9221928119659424 2.9368650913238525,-6.3711724281311035 c0,-5.63265323638916 -3.917412281036377,-8.571428298950195 -10.039860725402832,-8.571428298950195 zm-1.2244898080825806,5.1466827392578125 c2.9387755393981934,0 4.1623101234436035,1.4684325456619263 3.917412281036377,3.917412281036377 c0,1.4693877696990967 -0.4897959232330322,2.4461092948913574 -1.2244898080825806,3.1808032989501953 c-1.7142857313156128,1.4693877696990967 -4.160399913787842,1.9610964059829712 -8.078767776489258,1.9610964059829712 c-0.9795918464660645,0 -2.207902193069458,-0.24394285678863525 -2.697697877883911,-0.24394285678863525 c1.2244898080825806,-5.877551078796387 4.410073757171631,-8.8153715133667 8.083542823791504,-8.8153715133667 z" id="path4229" inkscape:connector-curvature="0" stroke-width="0" fill="#ffffff" fill-opacity="1"/>
      <path d="m394.9286807179451,100.95510864257812 l-4.897959232330322,22.775510787963867 l-6.857142925262451,0 l4.408163070678711,-21.06122589111328 c0.2448979616165161,-1.4693877696990967 0.4897959232330322,-2.448979616165161 0.4897959232330322,-3.18367338180542 c0,-1.7142857313156128 -0.7346938848495483,-2.448979616165161 -2.448979616165161,-2.448979616165161 c-2.2040815353393555,0 -5.387755393981934,1.4693877696990967 -8.816326141357422,5.877551078796387 l-4.408163070678711,20.816326141357422 l-6.857142925262451,0 l4.653061389923096,-22.040817260742188 c0.7346938848495483,-3.6734695434570312 0.7346938848495483,-5.877551078796387 0.2448979616165161,-8.081632614135742 l6.36734676361084,-2.693877696990967 c0.7346938848495483,1.4693877696990967 0.9795918464660645,3.6734695434570312 0.4897959232330322,5.877551078796387 c2.9387755393981934,-3.6734695434570312 7.102041244506836,-5.63265323638916 11.51020336151123,-5.63265323638916 c3.918367385864258,0 6.36734676361084,2.448979616165161 6.36734676361084,6.36734676361084 c0,0.9795918464660645 0,2.2040815353393555 -0.2448979616165161,3.4285714626312256 z" id="path4225" inkscape:connector-curvature="0" stroke-width="0" fill="#ffffff" fill-opacity="1"/>
      <path d="m418.928650200367,96.79183959960938 l-6.122448921203613,0 l-3.6734695434570312,17.14285659790039 c-0.2448979616165161,1.2244898080825806 -0.4897959232330322,2.2040815353393555 -0.4897959232330322,3.18367338180542 c0,1.959183692932129 0.9795918464660645,2.693877696990967 2.9387755393981934,2.693877696990967 c0.9795918464660645,0 2.2040815353393555,-0.2448979616165161 3.18367338180542,-0.7346938848495483 l0,4.408163070678711 c-2.2040815353393555,0.9795918464660645 -4.408163070678711,1.2244898080825806 -6.612245082855225,1.2244898080825806 c-4.408163070678711,0 -6.612245082855225,-2.2040815353393555 -6.612245082855225,-5.387755393981934 c0,-1.2244898080825806 0.2448979616165161,-2.693877696990967 0.4897959232330322,-4.408163070678711 l3.918367385864258,-18.12244987487793 l-3.6734695434570312,0 l0.9795918464660645,-4.897959232330322 l3.6734695434570312,0 c0.7346938848495483,-2.9387755393981934 1.2244898080825806,-5.387755393981934 1.959183692932129,-7.836734771728516 l7.3469390869140625,-1.7142857313156128 c-0.9795918464660645,2.693877696990967 -1.959183692932129,6.36734676361084 -2.693877696990967,9.551020622253418 l7.591836452484131,0 l-2.2040815353393555,4.897959232330322 z" id="path6" inkscape:connector-curvature="0" stroke-width="0" fill="#ffffff" fill-opacity="1"/>
    </g><g id="g4201" stroke-width="0" class="" fill="#ffffff" fill-opacity="1">
      <path d="M35.41845351457596,19.893878936767578 C33.214371025562286,17.934694290161133 30.52049285173416,17.200000762939453 27.581718742847443,17.200000762939453 c-3.4285714626312256,0 -7.3469390869140625,1.959183692932129 -9.551020622253418,4.653061389923096 c-4.653061389923096,5.142857074737549 -7.102041244506836,17.14285659790039 -7.102041244506836,23.02040672302246 c0,6.857142925262451 3.4285714626312256,9.795918464660645 9.061224937438965,9.795918464660645 c2.9387755393981934,0 5.877551078796387,-1.2244898080825806 9.551020622253418,-3.6734695434570312 l3.6734695434570312,6.857142925262451 C28.56131011247635,61.28163528442383 23.663349449634552,62.75102233886719 17.540901482105255,62.75102233886719 C6.03069669008255,62.75102233886719 -0.8264462351799011,56.13877487182617 -0.8264462351799011,44.62857437133789 C-0.8264462351799011,36.546939849853516 2.357227146625519,26.751020431518555 7.0102885365486145,20.38367462158203 C12.642941772937775,12.791836738586426 20.969471275806427,8.873469352722168 29.29600363969803,8.873469352722168 c5.142857074737549,0 9.795918464660645,1.7142857313156128 12.244897842407227,4.163265228271484 l-6.122448921203613,6.857142925262451 z" id="path4195" inkscape:connector-curvature="0" stroke-width="0" fill="#ffffff" fill-opacity="1"/>
      <path d="M63.09096556901932,5.1990437507629395 L47.416538536548615,15.238903045654297 L50.11424285173416,20.629528045654297 L61.37859374284744,14.751020431518555 L70.68184691667557,20.629528045654297 L74.60404235124588,15.238903045654297 L63.09096556901932,5.1990437507629395 zm-3.6734695434570312,17.635522842407227 c-13.22449016571045,0 -22.040817260742188,11.753189086914062 -22.040817260742188,26.20216941833496 c0,8.816326141357422 4.897959232330322,13.469388008117676 13.469388008117676,13.469388008117676 c15.183672904968262,0 22.284759521484375,-13.225447654724121 22.284759521484375,-26.694833755493164 c0,-8.326530456542969 -5.3867998123168945,-12.976720809936523 -13.713330268859863,-12.976720809936523 zm-1.71237051486969,7.59088134765625 c2.9387755393981934,0 4.654016494750977,1.2216196060180664 4.654016494750977,5.629782676696777 c0,7.3469390869140625 -3.4285714626312256,19.3478946685791 -9.795918464660645,19.3478946685791 c-2.693877696990967,0 -4.654016494750977,-1.71237051486969 -4.654016494750977,-5.385839939117432 c0,-5.877551078796387 3.18367338180542,-19.83673667907715 9.795918464660645,-19.59183692932129 z" id="path4193" inkscape:connector-curvature="0" stroke-width="0" fill="#ffffff" fill-opacity="1"/>
      <path d="m97.13273650407791,30.424489974975586 l-6.612245082855225,0 l-3.918367385864258,19.102041244506836 c-0.2448979616165161,1.2244898080825806 -0.4897959232330322,2.448979616165161 -0.4897959232330322,3.4285714626312256 c0,1.959183692932129 1.2244898080825806,2.693877696990967 3.4285714626312256,2.693877696990967 c0.9795918464660645,0 2.693877696990967,-0.2448979616165161 3.6734695434570312,-0.7346938848495483 l0,6.122448921203613 c-2.9387755393981934,1.2244898080825806 -5.877551078796387,1.7142857313156128 -8.571428298950195,1.7142857313156128 c-5.63265323638916,0 -9.061224937438965,-2.9387755393981934 -9.061224937438965,-6.612245082855225 c0,-1.2244898080825806 0.2448979616165161,-3.18367338180542 0.4897959232330322,-4.897959232330322 l4.408163070678711,-20.816326141357422 l-3.6734695434570312,0 l1.4693877696990967,-6.857142925262451 l3.6734695434570312,0 C82.68375426530838,19.893878936767578 83.1735537648201,17.44489860534668 84.153145134449,14.506122589111328 L94.68376189470291,12.057143211364746 C93.45926696062088,15.48571491241455 92.47967559099197,19.64897918701172 91.74498015642166,23.56734848022461 l8.816326141357422,0 l-3.4285714626312256,6.857142925262451 z" id="path4187" inkscape:connector-curvature="0" stroke-width="0" fill="#ffffff" fill-opacity="1"/>
      <path d="m120.64198333024979,22.834566116333008 c-4.897959232330322,0 -9.303252220153809,1.4684311151504517 -12.97672176361084,5.14190149307251 c-5.142857074737549,4.897959232330322 -8.571428298950195,12.979592323303223 -8.571428298950195,20.816326141357422 c0,9.306122779846191 5.38392972946167,13.957267761230469 14.445154190063477,13.957267761230469 C118.92674285173416,62.750064849853516 123.82662230730057,61.28163528442383 128.96946746110916,57.6081657409668 l-2.9368629455566406,-5.878509044647217 c-3.4285714626312256,2.448979616165161 -7.1039533615112305,3.917412281036377 -10.532524108886719,3.917412281036377 c-4.163265228271484,0 -6.366389274597168,-1.7142857313156128 -6.366389274597168,-6.122448921203613 c0,-0.9795918464660645 0.4878808259963989,-3.424746036529541 0.4878808259963989,-3.424746036529541 C109.62157469987869,46.09987258911133 111.58171874284744,46.5877571105957 114.27559691667557,46.5877571105957 c12.73469352722168,0 19.347896575927734,-6.123406410217285 19.347896575927734,-13.225447654724121 c0,-7.591836452484131 -5.389670372009277,-10.527741432189941 -12.981507301330566,-10.527741432189941 zm-0.9805469512939453,7.098215103149414 c2.9387755393981934,0 3.9221928119659424,1.7181110382080078 3.9221928119659424,3.9221928119659424 C123.58363372087479,37.77334213256836 118.68375426530838,39.24081802368164 114.27559691667557,39.24081802368164 c-1.2244898080825806,0 -2.692919969558716,-0.2429877519607544 -2.692919969558716,-0.4878832697868347 c1.4693877696990967,-6.612245082855225 4.405292987823486,-8.820152282714844 8.07876205444336,-8.820152282714844 z" id="path4185" inkscape:connector-curvature="0" stroke-width="0" fill="#ffffff" fill-opacity="1"/>
      <path d="m164.2347872853279,32.628570556640625 c-3.4285714626312256,-1.959183692932129 -6.36734676361084,-2.693877696990967 -9.306122779846191,-2.693877696990967 c-3.18367338180542,0 -5.63265323638916,1.2244898080825806 -5.63265323638916,3.918367385864258 c0,1.7142857313156128 1.2244898080825806,2.9387755393981934 3.918367385864258,3.6734695434570312 l4.408163070678711,1.4693877696990967 c3.6734695434570312,1.2244898080825806 7.591836452484131,3.918367385864258 7.591836452484131,8.571428298950195 c0,7.591836452484131 -5.877551078796387,14.938775062561035 -18.367347717285156,14.938775062561035 c-5.63265323638916,0 -10.53061294555664,-1.7142857313156128 -14.693878173828125,-4.163265228271484 l3.918367385864258,-7.3469390869140625 c2.9387755393981934,1.959183692932129 8.081632614135742,3.918367385864258 12.244897842407227,3.918367385864258 c3.18367338180542,0 5.877551078796387,-2.2040815353393555 5.877551078796387,-4.653061389923096 c0,-1.959183692932129 -1.7142857313156128,-2.9387755393981934 -4.897959232330322,-3.918367385864258 l-4.163265228271484,-1.4693877696990967 c-3.918367385864258,-1.2244898080825806 -7.102041244506836,-3.918367385864258 -7.102041244506836,-8.816326141357422 c0,-6.612245082855225 4.897959232330322,-13.714285850524902 17.387754440307617,-13.714285850524902 c4.897959232330322,0 9.551020622253418,1.4693877696990967 12.489795684814453,3.4285714626312256 l-3.6734695434570312,6.857142925262451 z" id="path4181" inkscape:connector-curvature="0" stroke-width="0" fill="#ffffff" fill-opacity="1"/>
      <path d="M215.66430693864822,6.667474746704102 L212.97139006853104,19.64897918701172 C212.48159819841385,22.097959518432617 212.2347872853279,23.56926155090332 212.2347872853279,24.059057235717773 c-0.7346938848495483,-0.2448979616165161 -3.6725118160247803,-0.9805483818054199 -6.366389274597168,-0.9805483818054199 c-4.408163070678711,0 -8.816326141357422,1.9582271575927734 -12.244897842407227,5.141900539398193 C188.23574858903885,33.36326599121094 185.29600554704666,41.688838958740234 185.29600554704666,49.280677795410156 c0,8.816326141357422 3.675382137298584,13.469388008117676 11.757014274597168,13.469388008117676 c3.4285714626312256,0 7.098215579986572,-1.7114155292510986 9.547195434570312,-4.405292987823486 c-0.2448979616165161,0.9795918464660645 0.003918367438018322,2.934950351715088 0.24872326850891113,3.424746036529541 l8.571428298950195,0 c-0.4897959232330322,-1.4693877696990967 -0.4907510280609131,-4.651148796081543 1.4684325456619263,-13.957271575927734 L225.2162783741951,8.1406888961792 L215.66430693864822,6.667474746704102 zM205.37571746110916,31.157270431518555 c1.959183692932129,0 3.6734695434570312,0.49362123012542725 4.897959232330322,1.4732130765914917 l-3.6734695434570312,17.14285659790039 c-1.2244898080825806,2.2040815353393555 -4.894134044647217,5.141902446746826 -7.098215579986572,5.141902446746826 c-2.693877696990967,0 -3.9221928119659424,-1.9610989093780518 -3.9221928119659424,-5.634568214416504 c0,-4.653061389923096 1.7152408361434937,-11.508288383483887 4.654016494750977,-15.181757926940918 c1.2244898080825806,-1.959183692932129 3.182718515396118,-2.941645622253418 5.141902446746826,-2.941645622253418 z" id="path4179" inkscape:connector-curvature="0" stroke-width="0" fill="#ffffff" fill-opacity="1"/>
      <path d="M228.64292937517166,27.24081802368164 C231.82661467790604,26.016328811645508 234.76538115739822,24.546939849853516 234.76538115739822,22.832653045654297 C234.76538115739822,22.097959518432617 234.52049285173416,21.363265991210938 233.7858126759529,20.873470306396484 C231.82661467790604,19.64897918701172 231.33682280778885,17.689796447753906 231.33682280778885,15.240816116333008 c0,-3.6734695434570312 2.9387755393981934,-6.36734676361084 6.36734676361084,-6.36734676361084 c4.408163070678711,0 7.3469390869140625,2.9387755393981934 7.3469390869140625,8.081632614135742 c0,6.36734676361084 -7.102041244506836,12.979592323303223 -13.469388008117676,14.448980331420898 l-2.9387755393981934,-4.163265228271484 z" id="path10" inkscape:connector-curvature="0" stroke-width="0" fill="#ffffff" fill-opacity="1"/>
      <path d="m257.05300933122635,9.85306167602539 l-28.16326332092285,51.91645431518555 l11.264350891113281,0 l6.366389274597168,-12.244897842407227 l15.43048095703125,0 l0.975771427154541,12.244897842407227 l10.77646541595459,0 L268.3173831105232,9.85306167602539 L257.05300933122635,9.85306167602539 zm3.1808083057403564,11.264349937438965 c0,0 -0.0009551020339131355,4.407207012176514 0.24391837418079376,8.815370559692383 l0.7366040945053101,10.77646541595459 l-10.283804893493652,0 l4.649240970611572,-9.55197525024414 c1.959183692932129,-3.6734695434570312 4.654016494750977,-10.039859771728516 4.654016494750977,-10.039859771728516 z" id="path4171" inkscape:connector-curvature="0" stroke-width="0" fill="#ffffff" fill-opacity="1"/>
      <path d="m292.3164065480232,22.342859268188477 c0.4897959232330322,1.2244898080825806 1.2244898080825806,3.918367385864258 0.9795918464660645,6.122448921203613 c3.4285714626312256,-3.4285714626312256 6.857142925262451,-5.877551078796387 10.53061294555664,-5.877551078796387 c1.4693877696990967,0 1.959183692932129,0.2448979616165161 3.4285714626312256,0.7346938848495483 l-4.408163070678711,8.816326141357422 c-0.9795918464660645,-0.4897959232330322 -1.7142857313156128,-0.7346938848495483 -2.9387755393981934,-0.7346938848495483 c-1.959183692932129,0 -4.163265228271484,1.2244898080825806 -7.102041244506836,5.142857074737549 l-5.387755393981934,24.979591369628906 l-10.040816307067871,0 l5.387755393981934,-25.224491119384766 c0.9795918464660645,-4.653061389923096 0.9795918464660645,-8.081632614135742 0.2448979616165161,-10.53061294555664 l9.306122779846191,-3.4285714626312256 z" id="path4167" inkscape:connector-curvature="0" stroke-width="0" fill="#ffffff" fill-opacity="1"/>
      <path d="m318.030700981617,22.342859268188477 c0.4897959232330322,1.2244898080825806 0.9795918464660645,4.163265228271484 0.9795918464660645,6.122448921203613 c3.6734695434570312,-3.918367385864258 8.081632614135742,-5.63265323638916 12.244897842407227,-5.63265323638916 c3.918367385864258,0 6.612245082855225,1.7142857313156128 7.102041244506836,5.63265323638916 c4.163265228271484,-4.163265228271484 8.326530456542969,-5.63265323638916 12.244897842407227,-5.63265323638916 c4.163265228271484,0 7.591836452484131,2.2040815353393555 7.591836452484131,7.836734771728516 c0,1.4693877696990967 -0.2448979616165161,3.18367338180542 -0.4897959232330322,4.897959232330322 l-5.63265323638916,25.959184646606445 l-9.795918464660645,0 l5.387755393981934,-25.224491119384766 c0.2448979616165161,-1.4693877696990967 0.4897959232330322,-2.448979616165161 0.4897959232330322,-3.18367338180542 c0,-1.7142857313156128 -0.7346938848495483,-2.2040815353393555 -2.448979616165161,-2.2040815353393555 c-2.693877696990967,0 -5.63265323638916,2.2040815353393555 -7.836734771728516,5.63265323638916 l-5.387755393981934,24.979591369628906 l-9.551020622253418,0 l5.387755393981934,-24.734695434570312 c0.2448979616165161,-1.7142857313156128 0.4897959232330322,-2.9387755393981934 0.4897959232330322,-3.6734695434570312 c0,-1.4693877696990967 -0.7346938848495483,-2.2040815353393555 -2.448979616165161,-2.2040815353393555 c-2.693877696990967,0 -5.387755393981934,2.2040815353393555 -8.081632614135742,5.63265323638916 l-5.387755393981934,24.979591369628906 l-9.795918464660645,0 l5.63265323638916,-25.959184646606445 c0.7346938848495483,-3.4285714626312256 0.4897959232330322,-7.836734771728516 -0.2448979616165161,-9.551020622253418 l9.551020622253418,-3.6734695434570312 z" id="path4165" inkscape:connector-curvature="0" stroke-width="0" fill="#ffffff" fill-opacity="1"/>
      <path d="m383.66336089372635,22.834566116333008 c-13.22449016571045,0 -22.040817260742188,11.753189086914062 -22.040817260742188,26.20216941833496 c0,8.816326141357422 4.897959232330322,13.469388008117676 13.469388008117676,13.469388008117676 c15.183672904968262,0 22.284759521484375,-13.225447654724121 22.284759521484375,-26.694833755493164 c0,-8.326530456542969 -5.3867998123168945,-12.976720809936523 -13.713330268859863,-12.976720809936523 zm-1.9610939025878906,7.59088134765625 c2.9387755393981934,0 4.654016494750977,1.2216196060180664 4.654016494750977,5.629782676696777 c0,7.3469390869140625 -3.4285714626312256,19.3478946685791 -9.795918464660645,19.3478946685791 c-2.693877696990967,0 -4.654016494750977,-1.71237051486969 -4.654016494750977,-5.385839939117432 c0,-5.877551078796387 3.4285714626312256,-19.83673667907715 9.795918464660645,-19.59183692932129 z" id="path4163" inkscape:connector-curvature="0" stroke-width="0" fill="#ffffff" fill-opacity="1"/>
      <path d="m413.2960208058357,22.342859268188477 c0.4897959232330322,1.2244898080825806 1.2244898080825806,3.918367385864258 0.9795918464660645,6.122448921203613 c3.4285714626312256,-3.4285714626312256 6.857142925262451,-5.877551078796387 10.775510787963867,-5.877551078796387 c1.4693877696990967,0 1.959183692932129,0.2448979616165161 3.4285714626312256,0.7346938848495483 l-4.408163070678711,8.816326141357422 c-0.9795918464660645,-0.4897959232330322 -1.7142857313156128,-0.7346938848495483 -2.9387755393981934,-0.7346938848495483 c-1.959183692932129,0 -4.163265228271484,1.2244898080825806 -7.102041244506836,5.142857074737549 l-5.387755393981934,24.979591369628906 l-10.040816307067871,0 l5.387755393981934,-25.224491119384766 c0.9795918464660645,-4.653061389923096 0.9795918464660645,-8.081632614135742 0.2448979616165161,-10.53061294555664 l9.061224937438965,-3.4285714626312256 z" id="path14" inkscape:connector-curvature="0" stroke-width="0" fill="#ffffff" fill-opacity="1"/>
    </g><g id="g4218" stroke-width="0" class="">
      <path style="fill:#ffffff" inkscape:connector-curvature="0" id="path18" d="m544.8062441945076,50.50612258911133 c-14.693878173828125,1.4693877696990967 -14.448980331420898,4.897959232330322 -14.448980331420898,16.163265228271484 c-11.26530647277832,-31.59183692932129 -41.632652282714844,-38.693878173828125 -86.69388580322266,-33.79591751098633 l0,18.12244987487793 c14.693878173828125,-3.6734695434570312 34.775508880615234,-4.653061389923096 49.95918273925781,1.4693877696990967 c14.448980331420898,5.877551078796387 30.367345809936523,17.877552032470703 35.020408630371094,36.24489974975586 l15.183672904968262,0 c-4.897959232330322,-12 -8.816326141357422,-21.795917510986328 12.489795684814453,-25.46938705444336 c12.979592323303223,-1.959183692932129 31.346939086914062,0.4897959232330322 42.12245178222656,2.448979616165161 l0,-11.26530647277832 C574.1940005421638,50.016326904296875 558.5204775929451,49.03673553466797 544.8062441945076,50.50612258911133 z" stroke-width="0"/>
      <path style="fill:#1b97d9" inkscape:connector-curvature="0" id="path20" d="m443.9082644581795,32.628570556640625 c45.06122589111328,-4.897959232330322 75.18367767333984,2.2040815353393555 86.69388580322266,33.79591751098633 c-0.2448979616165161,-11.26530647277832 -0.2448979616165161,-14.448980331420898 14.448980331420898,-16.163265228271484 c13.714285850524902,-1.4693877696990967 29.14285659790039,-0.4897959232330322 53.8775520324707,3.918367385864258 l0,-54.12245178222656 l-155.02040100097656,0 l0,32.57143020629883 z" stroke-width="0"/>
      <path style="fill:#33bc56" inkscape:connector-curvature="0" id="path22" d="m556.8061831593513,63.240814208984375 c-21.551021575927734,3.6734695434570312 -17.387754440307617,13.469388008117676 -12.489795684814453,25.46938705444336 l-15.183672904968262,0 C524.4797061085701,70.34285736083984 508.56131011247635,58.342857360839844 494.11233550310135,52.46530532836914 C478.683777153492,46.342857360839844 458.8470156788826,47.32244873046875 444.1531375050545,50.99591827392578 l0,84.73468780517578 l155.02040100097656,0 l0,-70.04081726074219 c-11.26530647277832,-2.2040815353393555 -29.632654190063477,-4.408163070678711 -42.36734390258789,-2.448979616165161 z" stroke-width="0"/>
    </g></g></g></svg>