<?xml version="1.0" encoding="UTF-8" standalone="no"?>
<svg
   xmlns:dc="http://purl.org/dc/elements/1.1/"
   xmlns:cc="http://creativecommons.org/ns#"
   xmlns:rdf="http://www.w3.org/1999/02/22-rdf-syntax-ns#"
   xmlns:svg="http://www.w3.org/2000/svg"
   xmlns="http://www.w3.org/2000/svg"
   xmlns:sodipodi="http://sodipodi.sourceforge.net/DTD/sodipodi-0.dtd"
   xmlns:inkscape="http://www.inkscape.org/namespaces/inkscape"
   viewBox="0 0 600.00001 137.2"
   id="svg2"
   version="1.1"
   inkscape:version="0.91 r13725"
   sodipodi:docname="Logo DeÌpartement Charente copie.svg"
   width="600"
   height="137.2">
  <metadata
     id="metadata28">
    <rdf:RDF>
      <cc:Work
         rdf:about="">
        <dc:format>image/svg+xml</dc:format>
        <dc:type
           rdf:resource="http://purl.org/dc/dcmitype/StillImage" />
        <dc:title></dc:title>
      </cc:Work>
    </rdf:RDF>
  </metadata>
  <defs
     id="defs26" />
  <sodipodi:namedview
     pagecolor="#ffffff"
     bordercolor="#666666"
     borderopacity="1"
     objecttolerance="10"
     gridtolerance="10"
     guidetolerance="10"
     inkscape:pageopacity="0"
     inkscape:pageshadow="2"
     inkscape:window-width="1440"
     inkscape:window-height="790"
     id="namedview24"
     showgrid="false"
     inkscape:zoom="2.3676095"
     inkscape:cx="122.45"
     inkscape:cy="28"
     inkscape:window-x="0"
     inkscape:window-y="1"
     inkscape:window-maximized="1"
     inkscape:current-layer="svg2" />
  <g
     id="g4288"
     transform="matrix(2.4489796,0,0,2.4489796,0,0.057143)">
    <g
       id="g4273">
      <path
         d="M 6,35.7 3.8,46.2 c -0.2,1 -0.3,1.5 -0.3,1.8 0,0.5 0.2,0.7 0.6,0.7 0.2,0 0.3,0 0.4,-0.1 l 0.2,1.7 c -0.6,0.2 -1.2,0.3 -1.9,0.3 -1.5,0 -2.3,-0.8 -2.3,-2 0,-0.4 0.1,-1.1 0.3,-1.8 L 3.1,36.1 c 0.4,-1.7 0.5,-3 0.2,-3.8 l 3,-1 c 0.2,0.9 0.1,2.8 -0.3,4.4 z"
         id="path4263"
         inkscape:connector-curvature="0" />
      <path
         d="m 15.199219,37.199219 c -1.7,0 -3.098438,0.600781 -4.398438,1.800781 -1.7999998,1.7 -2.9003904,4.499609 -2.9003904,7.099609 0,3.1 1.7996094,4.800782 4.5996094,4.800782 2.2,0 3.700781,-0.600391 5.300781,-1.900391 l -0.90039,-1.800781 c -1.2,0.9 -2.301172,1.40039 -3.701172,1.40039 -1.4,0 -2.398438,-0.80039 -2.398438,-2.40039 0,-0.4 0.199219,-1.098438 0.199219,-1.398438 0.3,0 0.899609,0.09961 1.599609,0.09961 2.6,0 4.4,-0.49961 5.5,-1.59961 0.8,-0.7 1.201172,-1.601562 1.201172,-2.601562 0,-2.3 -1.601562,-3.5 -4.101562,-3.5 z m -0.398438,2.101562 c 1.2,0 1.59961,0.59961 1.59961,1.59961 0,0.6 -0.2,0.998828 -0.5,1.298828 C 15.200391,42.799219 14.199609,43 12.599609,43 12.199609,43 11.7,42.90039 11.5,42.90039 c 0.5,-2.4 1.800781,-3.59961 3.300781,-3.59961 z"
         id="path4261"
         inkscape:connector-curvature="0" />
      <path
         d="m 31,32.699219 -3.800781,17.701172 4.5,0 c 3.4,0 5.2,-0.600391 7,-2.400391 2.1,-2 3.40039,-6 3.40039,-9 0,-2.3 -0.5,-3.599219 -1.5,-4.699219 -1.2,-1.3 -2.799609,-1.601562 -5.599609,-1.601562 l -4,0 z M 33.400391,35 l 1.90039,0 c 1.5,0 2.4,0.300781 3,1.300781 0.5,0.7 0.598438,1.59961 0.398438,2.59961 0,1.4 -0.499219,4.899218 -2.199219,7.199218 C 35.7,47.299609 34.300391,48 32.400391,48 l -1.800782,0 2.800782,-13 z"
         id="path4257"
         inkscape:connector-curvature="0" />
      <path
         d="M 54.699219,31.099609 49,34.5 l 0.800781,1.599609 6,-2.599609 -1.101562,-2.400391 z m -3.59961,6.09961 c -1.7,0 -3.10039,0.600781 -4.40039,1.800781 -1.8,1.7 -2.898438,4.499609 -2.898438,7.099609 0,3.1 1.79961,4.800782 4.59961,4.800782 2.2,0 3.698828,-0.600391 5.298828,-1.900391 l -0.898438,-1.800781 c -1.2,0.9 -2.301172,1.40039 -3.701172,1.40039 -1.4,0 -2.40039,-0.80039 -2.40039,-2.40039 0,-0.4 0.101172,-1.098438 0.201172,-1.398438 0.3,0 0.899609,0.09961 1.599609,0.09961 2.6,0 4.4,-0.49961 5.5,-1.59961 0.8,-0.7 1.199219,-1.601562 1.199219,-2.601562 0,-2.3 -1.59961,-3.5 -4.09961,-3.5 z m -0.40039,2.101562 c 1.2,0 1.601562,0.59961 1.601562,1.59961 0,0.6 -0.2,0.998828 -0.5,1.298828 C 51.100781,42.799219 50.1,43 48.5,43 c -0.4,0 -0.899609,-0.09961 -1.099609,-0.09961 0.5,-2.4 1.798828,-3.59961 3.298828,-3.59961 z"
         id="path4253"
         inkscape:connector-curvature="0" />
      <path
         d="m 61.400391,37 -2.59961,1.099609 c 0.3,0.8 0.3,1.601172 0,3.201172 L 55.699219,56 l 2.90039,-0.699219 0.800782,-4 c 0.1,-0.3 0.199218,-1.001562 0.199218,-1.101562 0.6,0.4 1.600782,0.601562 2.800782,0.601562 1.7,0 3.399609,-0.801562 4.599609,-2.101562 1.5,-1.7 2.5,-4.898828 2.5,-7.298828 0,-2.6 -1.200391,-4.201172 -3.400391,-4.201172 -1.6,0 -3.30039,0.801172 -4.40039,2.201172 0.1,-0.9 0.0012,-1.900391 -0.298828,-2.400391 z m 3.5,2.599609 c 1.1,0 1.5,0.600391 1.5,1.900391 0,1.7 -0.59961,4.299219 -1.59961,5.699219 -0.5,0.8 -1.401562,1.40039 -2.601562,1.40039 -0.8,0 -1.69961,-0.299218 -2.09961,-0.699218 L 61.400391,42 c 1.1,-1.6 2.5,-2.400391 3.5,-2.400391 z"
         id="path4247"
         inkscape:connector-curvature="0" />
      <path
         d="m 79.199219,37.199219 c -2.1,0 -3.799219,0.701562 -5.199219,2.101562 -1.7,1.7 -2.800781,4.498438 -2.800781,7.398438 0,2.7 1.40039,4.101562 3.40039,4.101562 1.7,0 3.000391,-0.7 3.900391,-2 0,0.8 0.3,1.49961 1,2.09961 l 2.300781,-1.701172 c -0.7,-0.7 -0.8,-1.298438 -0.5,-2.898438 l 1.09961,-5.201172 c 0.2,-0.9 0.498828,-2.30039 0.798828,-2.90039 -1,-0.7 -2.5,-1 -4,-1 z m -0.398438,2.201172 c 0.4,0 0.899219,0.09922 1.199219,0.199218 L 78.599609,46 c -0.6,1.3 -1.899609,2.5 -3.099609,2.5 -0.9,0 -1.400391,-0.6 -1.400391,-2 0,-1.8 0.501172,-4.299219 1.701172,-5.699219 1,-1.1 1.8,-1.40039 3,-1.40039 z"
         id="path4243"
         inkscape:connector-curvature="0" />
      <path
         d="m 93.2,40 c -0.3,-0.2 -0.5,-0.2 -0.9,-0.2 -0.9,0 -1.9,0.7 -3,2.3 l -1.8,8.4 -2.8,0 1.9,-8.7 C 87,40 87,39 86.7,38.1 L 89.3,37 c 0.3,0.7 0.4,1.6 0.2,2.5 1.2,-1.5 2.6,-2.4 3.9,-2.4 0.5,0 0.7,0.1 1.1,0.2 L 93.2,40 Z"
         id="path4239"
         inkscape:connector-curvature="0" />
      <path
         d="m 101.3,39.5 -2.5,0 -1.5,7 c -0.1,0.5 -0.2,0.9 -0.2,1.3 0,0.8 0.4,1.1 1.2,1.1 0.4,0 0.9,-0.1 1.3,-0.3 l 0,1.8 c -0.9,0.4 -1.8,0.5 -2.7,0.5 -1.8,0 -2.7,-0.9 -2.7,-2.2 0,-0.5 0.1,-1.1 0.2,-1.8 l 1.6,-7.4 -1.5,0 0.4,-2 1.5,0 c 0.3,-1.2 0.5,-2.2 0.9,-3.2 l 3,-0.7 c -0.4,1.1 -0.8,2.6 -1.1,3.9 l 3.1,0 -1,2 z"
         id="path4237"
         inkscape:connector-curvature="0" />
      <path
         d="m 110.09961,37.199219 c -1.7,0 -3.10039,0.600781 -4.40039,1.800781 -1.8,1.7 -2.89844,4.499609 -2.89844,7.099609 0,3.1 1.79961,4.800782 4.59961,4.800782 2.2,0 3.69883,-0.600391 5.29883,-1.900391 l -0.89844,-1.800781 c -1.2,0.9 -2.30117,1.40039 -3.70117,1.40039 -1.4,0 -2.40039,-0.80039 -2.40039,-2.40039 0,-0.4 0.10117,-1.098438 0.20117,-1.398438 0.3,0 0.89961,0.09961 1.59961,0.09961 2.6,0 4.4,-0.49961 5.5,-1.59961 0.7,-0.7 1.09922,-1.601562 1.19922,-2.601562 0,-2.3 -1.59961,-3.5 -4.09961,-3.5 z m -0.5,2.101562 c 1.2,0 1.69961,0.59961 1.59961,1.59961 0,0.6 -0.2,0.998828 -0.5,1.298828 -0.7,0.6 -1.69883,0.800781 -3.29883,0.800781 -0.4,0 -0.89961,-0.09961 -1.09961,-0.09961 0.5,-2.4 1.79883,-3.59961 3.29883,-3.59961 z"
         id="path4235"
         inkscape:connector-curvature="0" />
      <path
         d="m 134.1,41.4 -1.9,9.1 -2.8,0 1.9,-8.8 c 0.1,-0.5 0.2,-0.9 0.2,-1.2 0,-0.6 -0.3,-0.9 -1,-0.9 -1,0 -2.3,1 -3.3,2.4 l -1.8,8.5 -2.7,0 1.8,-8.6 c 0.1,-0.6 0.2,-1.1 0.2,-1.4 0,-0.6 -0.2,-0.9 -0.9,-0.9 -0.9,0 -2.2,0.9 -3.4,2.4 l -1.8,8.5 -2.7,0 1.9,-9.1 c 0.3,-1.4 0.3,-2.4 0,-3.3 l 2.6,-1.1 c 0.3,0.6 0.4,1.6 0.2,2.4 1.5,-1.6 3.1,-2.3 4.5,-2.3 1.4,0 2.2,0.8 2.3,2.3 1.6,-1.7 3.1,-2.3 4.5,-2.3 1.5,0 2.5,1 2.5,2.6 -0.1,0.5 -0.2,1.2 -0.3,1.7 z"
         id="path4231"
         inkscape:connector-curvature="0" />
      <path
         d="m 144,37.199219 c -1.7,0 -3.10039,0.600781 -4.40039,1.800781 -1.8,1.7 -2.90039,4.499609 -2.90039,7.099609 0,3.1 1.80156,4.800782 4.60156,4.800782 2.2,0 3.69883,-0.600391 5.29883,-1.900391 l -0.90039,-1.800781 c -1.2,0.9 -2.29922,1.40039 -3.69922,1.40039 -1.4,0 -2.40039,-0.80039 -2.40039,-2.40039 0,-0.4 0.10117,-1.098438 0.20117,-1.398438 0.3,0 0.89961,0.09961 1.59961,0.09961 2.6,0 4.4,-0.49961 5.5,-1.59961 0.7,-0.7 1.09922,-1.601562 1.19922,-2.601562 0,-2.3 -1.59961,-3.5 -4.09961,-3.5 z m -0.5,2.101562 c 1.2,0 1.69961,0.59961 1.59961,1.59961 0,0.6 -0.2,0.998828 -0.5,1.298828 -0.7,0.6 -1.69883,0.800781 -3.29883,0.800781 -0.4,0 -0.90156,-0.09961 -1.10156,-0.09961 0.5,-2.4 1.80078,-3.59961 3.30078,-3.59961 z"
         id="path4229"
         inkscape:connector-curvature="0" />
      <path
         d="m 161.6,41.2 -2,9.3 -2.8,0 1.8,-8.6 c 0.1,-0.6 0.2,-1 0.2,-1.3 0,-0.7 -0.3,-1 -1,-1 -0.9,0 -2.2,0.6 -3.6,2.4 l -1.8,8.5 -2.8,0 1.9,-9 c 0.3,-1.5 0.3,-2.4 0.1,-3.3 l 2.6,-1.1 c 0.3,0.6 0.4,1.5 0.2,2.4 1.2,-1.5 2.9,-2.3 4.7,-2.3 1.6,0 2.6,1 2.6,2.6 0,0.4 0,0.9 -0.1,1.4 z"
         id="path4225"
         inkscape:connector-curvature="0" />
      <path
         d="m 171.4,39.5 -2.5,0 -1.5,7 c -0.1,0.5 -0.2,0.9 -0.2,1.3 0,0.8 0.4,1.1 1.2,1.1 0.4,0 0.9,-0.1 1.3,-0.3 l 0,1.8 c -0.9,0.4 -1.8,0.5 -2.7,0.5 -1.8,0 -2.7,-0.9 -2.7,-2.2 0,-0.5 0.1,-1.1 0.2,-1.8 l 1.6,-7.4 -1.5,0 0.4,-2 1.5,0 c 0.3,-1.2 0.5,-2.2 0.8,-3.2 l 3,-0.7 c -0.4,1.1 -0.8,2.6 -1.1,3.9 l 3.1,0 -0.9,2 z"
         id="path6"
         inkscape:connector-curvature="0" />
    </g>
    <g
       id="g4201">
      <path
         d="M 14.8,8.1 C 13.9,7.3 12.8,7 11.6,7 c -1.4,0 -3,0.8 -3.9,1.9 -1.9,2.1 -2.9,7 -2.9,9.4 0,2.8 1.4,4 3.7,4 1.2,0 2.4,-0.5 3.9,-1.5 l 1.5,2.8 C 12,25 10,25.6 7.5,25.6 2.8,25.6 0,22.9 0,18.2 0,14.9 1.3,10.9 3.2,8.3 5.5,5.2 8.9,3.6 12.3,3.6 c 2.1,0 4,0.7 5,1.7 l -2.5,2.8 z"
         id="path4195"
         inkscape:connector-curvature="0" />
      <path
         d="M 26.099609,2.0996094 19.699219,6.1992188 20.800781,8.4003906 25.400391,6 29.199219,8.4003906 30.800781,6.1992188 26.099609,2.0996094 Z m -1.5,7.2011718 c -5.4,0 -9,4.7992188 -9,10.6992188 0,3.6 2,5.5 5.5,5.5 6.2,0 9.09961,-5.400391 9.09961,-10.900391 0,-3.4 -2.19961,-5.2988277 -5.59961,-5.2988278 z m -0.699218,3.0996098 c 1.2,0 1.90039,0.498828 1.90039,2.298828 0,3 -1.4,7.90039 -4,7.90039 -1.1,0 -1.90039,-0.699218 -1.90039,-2.199218 0,-2.4 1.3,-8.1 4,-8 z"
         id="path4193"
         inkscape:connector-curvature="0" />
      <path
         d="m 40,12.4 -2.7,0 -1.6,7.8 c -0.1,0.5 -0.2,1 -0.2,1.4 0,0.8 0.5,1.1 1.4,1.1 0.4,0 1.1,-0.1 1.5,-0.3 l 0,2.5 c -1.2,0.5 -2.4,0.7 -3.5,0.7 -2.3,0 -3.7,-1.2 -3.7,-2.7 0,-0.5 0.1,-1.3 0.2,-2 l 1.8,-8.5 -1.5,0 0.6,-2.8 1.5,0 C 34.1,8.1 34.3,7.1 34.7,5.9 L 39,4.9 C 38.5,6.3 38.1,8 37.8,9.6 l 3.6,0 -1.4,2.8 z"
         id="path4187"
         inkscape:connector-curvature="0" />
      <path
         d="m 49.599609,9.3007812 c -2,0 -3.798828,0.5996094 -5.298828,2.0996098 -2.1,2 -3.5,5.3 -3.5,8.5 0,3.8 2.198438,5.699218 5.898438,5.699218 C 48.899219,25.599609 50.9,25 53,23.5 l -1.199219,-2.400391 c -1.4,1 -2.900781,1.59961 -4.300781,1.59961 -1.7,0 -2.599609,-0.7 -2.599609,-2.5 0,-0.4 0.199218,-1.398438 0.199218,-1.398438 C 45.099609,18.800781 45.9,19 47,19 c 5.2,0 7.900391,-2.500391 7.900391,-5.400391 0,-3.1 -2.200782,-4.2988278 -5.300782,-4.2988278 z m -0.40039,2.8984378 c 1.2,0 1.601562,0.701562 1.601562,1.601562 C 50.800781,15.400781 48.8,16 47,16 c -0.5,0 -1.099609,-0.09922 -1.099609,-0.199219 0.6,-2.7 1.798828,-3.601562 3.298828,-3.601562 z"
         id="path4185"
         inkscape:connector-curvature="0" />
      <path
         d="m 67.4,13.3 c -1.4,-0.8 -2.6,-1.1 -3.8,-1.1 -1.3,0 -2.3,0.5 -2.3,1.6 0,0.7 0.5,1.2 1.6,1.5 l 1.8,0.6 c 1.5,0.5 3.1,1.6 3.1,3.5 0,3.1 -2.4,6.1 -7.5,6.1 -2.3,0 -4.3,-0.7 -6,-1.7 l 1.6,-3 c 1.2,0.8 3.3,1.6 5,1.6 1.3,0 2.4,-0.9 2.4,-1.9 0,-0.8 -0.7,-1.2 -2,-1.6 l -1.7,-0.6 c -1.6,-0.5 -2.9,-1.6 -2.9,-3.6 0,-2.7 2,-5.6 7.1,-5.6 2,0 3.9,0.6 5.1,1.4 l -1.5,2.8 z"
         id="path4181"
         inkscape:connector-curvature="0" />
      <path
         d="M 88.400391,2.6992188 87.300781,8 C 87.100781,9 87,9.6007812 87,9.8007812 c -0.3,-0.1 -1.499609,-0.4003906 -2.599609,-0.4003906 -1.8,0 -3.6,0.7996094 -5,2.0996094 C 77.200391,13.6 76,16.999609 76,20.099609 c 0,3.6 1.500781,5.5 4.800781,5.5 1.4,0 2.898438,-0.698828 3.898438,-1.798828 -0.1,0.4 0.0016,1.198438 0.101562,1.398438 l 3.5,0 c -0.2,-0.6 -0.20039,-1.899219 0.59961,-5.699219 L 92.300781,3.3007812 88.400391,2.6992188 Z M 84.199219,12.699219 c 0.8,0 1.5,0.201562 2,0.601562 l -1.5,7 c -0.5,0.9 -1.998438,2.09961 -2.898438,2.09961 -1.1,0 -1.601562,-0.800782 -1.601562,-2.300782 0,-1.9 0.70039,-4.699218 1.90039,-6.199218 0.5,-0.8 1.29961,-1.201172 2.09961,-1.201172 z"
         id="path4179"
         inkscape:connector-curvature="0" />
      <path
         d="M 93.7,11.1 C 95,10.6 96.2,10 96.2,9.3 96.2,9 96.1,8.7 95.8,8.5 95,8 94.8,7.2 94.8,6.2 c 0,-1.5 1.2,-2.6 2.6,-2.6 1.8,0 3,1.2 3,3.3 0,2.6 -2.9,5.3 -5.5,5.9 l -1.2,-1.7 z"
         id="path10"
         inkscape:connector-curvature="0" />
      <path
         d="m 105.30078,4 -11.499999,21.199219 4.59961,0 2.599609,-5 6.30078,0 0.39844,5 4.40039,0 L 109.90039,4 105.30078,4 Z m 1.29883,4.5996094 c 0,0 -3.9e-4,1.7996096 0.0996,3.5996096 l 0.30078,4.40039 -4.19922,0 1.89844,-3.90039 c 0.8,-1.5 1.90039,-4.0996096 1.90039,-4.0996096 z"
         id="path4171"
         inkscape:connector-curvature="0" />
      <path
         d="m 119.7,9.1 c 0.2,0.5 0.5,1.6 0.4,2.5 1.4,-1.4 2.8,-2.4 4.3,-2.4 0.6,0 0.8,0.1 1.4,0.3 l -1.8,3.6 c -0.4,-0.2 -0.7,-0.3 -1.2,-0.3 -0.8,0 -1.7,0.5 -2.9,2.1 l -2.2,10.2 -4.1,0 2.2,-10.3 c 0.4,-1.9 0.4,-3.3 0.1,-4.3 l 3.8,-1.4 z"
         id="path4167"
         inkscape:connector-curvature="0" />
      <path
         d="m 130.2,9.1 c 0.2,0.5 0.4,1.7 0.4,2.5 1.5,-1.6 3.3,-2.3 5,-2.3 1.6,0 2.7,0.7 2.9,2.3 1.7,-1.7 3.4,-2.3 5,-2.3 1.7,0 3.1,0.9 3.1,3.2 0,0.6 -0.1,1.3 -0.2,2 l -2.3,10.6 -4,0 2.2,-10.3 c 0.1,-0.6 0.2,-1 0.2,-1.3 0,-0.7 -0.3,-0.9 -1,-0.9 -1.1,0 -2.3,0.9 -3.2,2.3 l -2.2,10.2 -3.9,0 2.2,-10.1 c 0.1,-0.7 0.2,-1.2 0.2,-1.5 0,-0.6 -0.3,-0.9 -1,-0.9 -1.1,0 -2.2,0.9 -3.3,2.3 l -2.2,10.2 -4,0 2.3,-10.6 c 0.3,-1.4 0.2,-3.2 -0.1,-3.9 l 3.9,-1.5 z"
         id="path4165"
         inkscape:connector-curvature="0" />
      <path
         d="m 157,9.3007812 c -5.4,0 -9,4.7992188 -9,10.6992188 0,3.6 2,5.5 5.5,5.5 6.2,0 9.09961,-5.400391 9.09961,-10.900391 0,-3.4 -2.19961,-5.2988278 -5.59961,-5.2988278 z m -0.80078,3.0996098 c 1.2,0 1.90039,0.498828 1.90039,2.298828 0,3 -1.4,7.90039 -4,7.90039 -1.1,0 -1.90039,-0.699218 -1.90039,-2.199218 0,-2.4 1.4,-8.1 4,-8 z"
         id="path4163"
         inkscape:connector-curvature="0" />
      <path
         d="m 169.1,9.1 c 0.2,0.5 0.5,1.6 0.4,2.5 1.4,-1.4 2.8,-2.4 4.4,-2.4 0.6,0 0.8,0.1 1.4,0.3 l -1.8,3.6 c -0.4,-0.2 -0.7,-0.3 -1.2,-0.3 -0.8,0 -1.7,0.5 -2.9,2.1 l -2.2,10.2 -4.1,0 2.2,-10.3 c 0.4,-1.9 0.4,-3.3 0.1,-4.3 l 3.7,-1.4 z"
         id="path14"
         inkscape:connector-curvature="0" />
    </g>
    <g
       id="g4218">
      <path
         style="fill:#ffffff"
         inkscape:connector-curvature="0"
         id="path18"
         d="m 222.8,20.6 c -6,0.6 -5.9,2 -5.9,6.6 -4.6,-12.9 -17,-15.8 -35.4,-13.8 l 0,7.4 c 6,-1.5 14.2,-1.9 20.4,0.6 5.9,2.4 12.4,7.3 14.3,14.8 l 6.2,0 c -2,-4.9 -3.6,-8.9 5.1,-10.4 5.3,-0.8 12.8,0.2 17.2,1 l 0,-4.6 C 234.8,20.4 228.4,20 222.8,20.6 Z" />
      <path
         style="fill:#1b97d9"
         inkscape:connector-curvature="0"
         id="path20"
         d="m 181.6,13.3 c 18.4,-2 30.7,0.9 35.4,13.8 -0.1,-4.6 -0.1,-5.9 5.9,-6.6 5.6,-0.6 11.9,-0.2 22,1.6 l 0,-22.1 -63.3,0 0,13.3 z" />
      <path
         style="fill:#33bc56"
         inkscape:connector-curvature="0"
         id="path22"
         d="m 227.7,25.8 c -8.8,1.5 -7.1,5.5 -5.1,10.4 l -6.2,0 C 214.5,28.7 208,23.8 202.1,21.4 195.8,18.9 187.7,19.3 181.7,20.8 l 0,34.6 63.3,0 0,-28.6 c -4.6,-0.9 -12.1,-1.8 -17.3,-1 z" />
    </g>
  </g>
</svg>
