<?xml version="1.0" encoding="UTF-8" standalone="no"?>
<!-- Created with Inkscape (http://www.inkscape.org/) -->

<svg
   xmlns:dc="http://purl.org/dc/elements/1.1/"
   xmlns:cc="http://creativecommons.org/ns#"
   xmlns:rdf="http://www.w3.org/1999/02/22-rdf-syntax-ns#"
   xmlns:svg="http://www.w3.org/2000/svg"
   xmlns="http://www.w3.org/2000/svg"
   xmlns:sodipodi="http://sodipodi.sourceforge.net/DTD/sodipodi-0.dtd"
   xmlns:inkscape="http://www.inkscape.org/namespaces/inkscape"
   width="37.210541mm"
   height="37.210011mm"
   viewBox="0 0 37.210541 37.210011"
   version="1.1"
   id="svg3826"
   inkscape:version="0.92.4 (5da689c313, 2019-01-14)"
   sodipodi:docname="Logo BREIZH.svg">
  <defs
     id="defs3820" />
  <sodipodi:namedview
     id="base"
     pagecolor="#ffffff"
     bordercolor="#666666"
     borderopacity="1.0"
     inkscape:pageopacity="0.0"
     inkscape:pageshadow="2"
     inkscape:zoom="0.20011674"
     inkscape:cx="60.961765"
     inkscape:cy="740.95545"
     inkscape:document-units="mm"
     inkscape:current-layer="layer1"
     showgrid="false"
     fit-margin-top="0"
     fit-margin-left="0"
     fit-margin-right="0"
     fit-margin-bottom="0"
     inkscape:pagecheckerboard="true"
     inkscape:window-width="1920"
     inkscape:window-height="1001"
     inkscape:window-x="-9"
     inkscape:window-y="-9"
     inkscape:window-maximized="1" />
  <metadata
     id="metadata3823">
    <rdf:RDF>
      <cc:Work
         rdf:about="">
        <dc:format>image/svg+xml</dc:format>
        <dc:type
           rdf:resource="http://purl.org/dc/dcmitype/StillImage" />
        <dc:title></dc:title>
      </cc:Work>
    </rdf:RDF>
  </metadata>
  <g
     inkscape:label="Calque 1"
     inkscape:groupmode="layer"
     id="layer1"
     transform="translate(-86.103264,-160.5979)">
    <g
       transform="matrix(0.33072917,0,0,-0.33072917,86.003916,198.05505)"
       id="g3818">
      <path
         d="M 0.300781,0.747266 H 112.81078 V 113.25627 H 0.300781 Z"
         style="fill:#18161b;fill-opacity:1;fill-rule:nonzero;stroke:none;stroke-width:0.1"
         id="path15"
         inkscape:connector-curvature="0" />
      <path
         d="m 26.977,92.2305 v 0 c 0,0 4.9921,-0.8864 9.0269,4.0781 4.0336,4.9614 1.8402,8.9334 1.8402,8.9334 v 0 c 0,0 -4.3046,0.388 -8.2753,-4.246 -3.9649,-4.6335 -2.5918,-8.7655 -2.5918,-8.7655"
         style="fill:#ffffff;fill-opacity:1;fill-rule:nonzero;stroke:none;stroke-width:0.1"
         id="path17"
         inkscape:connector-curvature="0" />
      <path
         d="m 21.9102,87.457 v 0 c 0,0 0.7132,-5.0207 -4.3883,-8.88 -5.0977,-3.8606 -8.99221,-1.5301 -8.99221,-1.5301 v 0 c 0,0 -0.24024,4.3156 4.52891,8.1226 4.7699,3.8032 8.8516,2.2875 8.8516,2.2875"
         style="fill:#ffffff;fill-opacity:1;fill-rule:nonzero;stroke:none;stroke-width:0.1"
         id="path19"
         inkscape:connector-curvature="0" />
      <path
         d="m 20.9281,92.5367 c 0,0 1.0274,4.5121 -3.5683,8.9833 -4.5957,4.476 -8.78128,3.613 -8.78128,3.613 v 0 c 0,0 -1.03907,-4.677 3.44878,-9.2537 4.4868,-4.5781 8.9008,-3.3426 8.9008,-3.3426"
         style="fill:#ffffff;fill-opacity:1;fill-rule:nonzero;stroke:none;stroke-width:0.1"
         id="path21"
         inkscape:connector-curvature="0" />
      <path
         d="m 94.3926,68.7109 c 5.6644,-1.605 10.8594,-4.3238 10.8594,-4.3238 0,0 -4.309,-5.5707 -10.9168,-8.4176 -6.6133,-2.8472 -8.7422,-1.1402 -8.7422,-1.1402 0,0 3.405,-1.8012 6.2019,-6.8574 2.7969,-5.0586 2.543,-8.3899 2.543,-8.3899 -14.0293,3.591 -27.3715,9.593 -39.2246,17.9485 -11.4781,8.091 -21.268,18.3203 -29.1188,29.9386 11.2203,-8.3086 23.4805,-11.2539 36.3063,-12.0675 20.4519,-1.2969 30.989,9.7254 30.989,9.7254 0,0 0.8598,-2.3012 -1.4839,-8.3895 -2.3489,-6.0937 -5.4582,-7.7961 -5.4582,-7.7961 0,0 2.3859,1.3738 8.0449,-0.2305"
         style="fill:#ffffff;fill-opacity:1;fill-rule:nonzero;stroke:none;stroke-width:0.1"
         id="path23"
         inkscape:connector-curvature="0" />
      <path
         d="m 16.3207,32.3059 c 0,0 0.0168,-0.4497 0.0168,-0.5598 0,-0.0965 -0.0324,-0.1121 -0.1273,-0.177 -0.2086,-0.1433 -0.7528,-0.2554 -0.9766,-0.2554 -0.832,0 -1.4246,0.4004 -1.9207,1.3281 l -1.5039,2.8477 c -0.1602,0.3203 -0.336,0.4324 -0.6563,0.4636 -0.7031,0.0645 -1.0234,0.0969 -1.16793,0.0969 -0.22305,0 -0.25508,-0.1445 -0.25508,-0.3527 0,-0.4637 0,-1.0711 0,-1.6641 0,-1.2 0,-2.3672 0,-2.3672 0,-0.1121 0,-0.1926 -0.14375,-0.1926 -0.0961,0 -0.64024,0.0317 -0.71992,0.0473 -0.08047,-0.0156 -0.64024,-0.0473 -0.75235,-0.0473 -0.09648,0 -0.09648,0.0161 -0.09648,0.0649 0,0.0789 0.08047,0.239 0.08047,0.3512 v 10.2238 c 0,0.2082 0.06406,0.2722 0.17578,0.2883 0.76875,0.1265 2.41566,0.2402 3.58356,0.2402 1.9203,0 3.345,-1.0078 3.345,-3.2805 0,-1.3437 -0.7368,-2.4472 -1.6809,-2.864 -0.1602,-0.0637 -0.2238,-0.1282 -0.2238,-0.2239 0,-0.0632 0.0324,-0.1433 0.0965,-0.2558 0.3835,-0.7196 1.0242,-1.7918 1.4074,-2.4485 0.3203,-0.5269 0.5926,-0.655 0.88,-0.655 0.3204,0 0.4805,0.1433 0.5922,0.1433 0.0797,0 0.0965,-0.064 0.0965,-0.1433 0,-0.0809 -0.0492,-0.6082 -0.0492,-0.6082 z m -4.8152,8.9921 c -0.5914,0 -1.2477,-0.048 -1.568,-0.0976 -0.19141,-0.0316 -0.27188,-0.0473 -0.27188,-0.2383 0,-0.2402 0.06407,-0.5129 0.06407,-1.0726 v -1.7918 c 0,-0.4317 0.06367,-0.6395 0.51251,-0.752 0.2711,-0.0645 0.6719,-0.1121 1.168,-0.1121 1.2476,0 2.0472,0.6719 2.0472,1.9844 0,1.2793 -0.6719,2.08 -1.9519,2.08"
         style="fill:#ffffff;fill-opacity:1;fill-rule:nonzero;stroke:none;stroke-width:0.1"
         id="path25"
         inkscape:connector-curvature="0" />
      <path
         d="m 26.3207,35.9055 c -0.0949,-0.3196 -0.2074,-0.4004 -0.4949,-0.4004 h -3.7606 c -0.4164,0 -0.5754,-0.0469 -0.5754,-0.3363 0,-1.4227 0.9118,-2.4313 2.3036,-2.4313 0.8644,0 1.8554,0.4004 2.2718,0.8797 0.0797,0.0801 0.145,0.1125 0.2082,0.1125 0.0797,0 0.1121,-0.0481 0.1121,-0.1606 0,-0.1597 -0.0648,-0.6714 -0.0648,-0.6714 0,0 0.0168,-0.4797 0.0168,-0.6243 0,-0.0964 -0.0168,-0.1601 -0.1117,-0.2402 -0.577,-0.4473 -1.7281,-0.7195 -2.6567,-0.7195 -2.4949,0 -3.7433,1.5508 -3.7433,4.1597 0,2.4161 1.2957,4.1125 3.6316,4.1125 1.7121,0 3.0235,-0.8808 3.0235,-2.7043 0,-0.2554 -0.0793,-0.7046 -0.1602,-0.9761 z m -2.9598,2.5757 c -1.0558,0 -1.7918,-0.8472 -1.7918,-1.8394 0,-0.1926 0.0485,-0.2727 0.177,-0.2727 0.1434,0 0.3359,0.1438 0.4797,0.1438 h 2.368 c 0.2554,0 0.4,0.0809 0.4,0.5601 0,0.8801 -0.7516,1.4082 -1.6329,1.4082 z m 1.7918,3.9043 -0.7996,-1.5371 c -0.3683,-0.7183 -0.2879,-0.7507 -0.5273,-0.7507 h -0.8164 c -0.1278,0 -0.1434,0.0324 -0.1434,0.0949 0,0.0808 0.111,0.1289 0.2082,0.4969 l 0.4469,1.664 c 0.0805,0.2727 0.0648,0.3684 0.1769,0.3684 0.0954,0 0.1915,-0.0168 0.3364,-0.0168 h 0.9594 c 0.1117,0 0.2242,0 0.2242,-0.1113 0,-0.0657 -0.016,-0.1282 -0.0653,-0.2083"
         style="fill:#ffffff;fill-opacity:1;fill-rule:nonzero;stroke:none;stroke-width:0.1"
         id="path27"
         inkscape:connector-curvature="0" />
      <path
         d="m 35.7297,38.6094 c 0,-0.3203 0.2719,-0.9434 0.2719,-1.5672 0,-1.6164 -1.12,-2.561 -2.5442,-2.561 -0.2879,0 -0.3676,-0.2234 -0.3676,-0.6558 0,-0.9113 2.0797,-1.584 2.0797,-3.2641 0,-1.3113 -1.0246,-2.0801 -2.4961,-2.0801 -0.3203,0 -0.5441,0.0161 -0.7679,0.0801 -0.1282,0.0325 -0.1438,0.0649 -0.1594,0.1606 -0.0164,0.1597 -0.0805,0.5437 -0.0805,0.5437 0,0 -0.1273,0.5442 -0.1273,0.6082 0,0.0805 0.0308,0.1117 0.1105,0.1117 0.0973,0 0.5614,-0.1757 0.9293,-0.1757 0.5746,0 0.9602,0.2402 0.9602,0.7515 0,1.136 -2.0172,1.5844 -2.0172,3.1684 0,0.368 0.2406,0.5762 0.2406,0.7359 v 0.0957 c 0,0.1606 -0.0156,0.2082 -0.2887,0.4008 -0.6562,0.4637 -0.9269,1.1988 -0.9269,2 0,1.5352 1.0078,2.543 2.6719,2.543 0.5754,0 2.3836,-0.0957 2.7039,-0.0957 0.0797,0 0.1281,-0.0801 0.1281,-0.1282 0,-0.1601 -0.3203,-0.2714 -0.3203,-0.6718 z m -2.4485,-0.0813 c -0.7835,0 -1.2964,-0.5906 -1.2964,-1.5347 0,-0.8164 0.3851,-1.5352 1.2652,-1.5352 0.8793,0 1.327,0.6875 1.327,1.5516 0,1.1359 -0.5118,1.5183 -1.2958,1.5183"
         style="fill:#ffffff;fill-opacity:1;fill-rule:nonzero;stroke:none;stroke-width:0.1"
         id="path29"
         inkscape:connector-curvature="0" />
      <path
         d="m 41.9688,31.4734 c -0.1598,0 -0.7352,0.0473 -0.7352,0.0473 0,0 -0.5133,-0.0473 -0.6723,-0.0473 -0.1277,0 -0.1597,0.0473 -0.1597,0.1762 0,0.0965 0.0156,0.2399 0.0156,0.4156 v 6.0168 c 0,0.3992 -0.0484,0.8477 -0.0484,1.0711 0,0.2246 0.0484,0.2563 0.2082,0.2563 0.0953,0 0.6238,-0.0481 0.6238,-0.0481 0,0 0.4961,0.0481 0.6238,0.0481 0.1442,0 0.1758,-0.0317 0.1758,-0.1758 0,-0.1125 -0.0316,-0.3039 -0.0316,-0.4961 v -5.9043 c 0,-0.6723 0.1124,-1.0394 0.1124,-1.216 0,-0.0965 -0.0328,-0.1438 -0.1124,-0.1438 z m -0.2887,9.3911 h -0.991 c -0.1446,0 -0.1926,0.0976 -0.1926,0.241 0,0.1281 0.0324,0.3039 0.0324,0.4804 0,0.1282 -0.0324,0.2703 -0.0324,0.3836 0,0.1438 0.0324,0.2231 0.1758,0.2231 h 0.9922 c 0.1285,0 0.1757,-0.0793 0.1757,-0.2071 0,-0.1449 -0.0472,-0.3039 -0.0472,-0.4164 0,-0.1597 0.0472,-0.3511 0.0472,-0.4961 0,-0.1277 -0.0312,-0.2085 -0.1601,-0.2085"
         style="fill:#ffffff;fill-opacity:1;fill-rule:nonzero;stroke:none;stroke-width:0.1"
         id="path31"
         inkscape:connector-curvature="0" />
      <path
         d="m 49.8738,31.3137 c -2.6082,0 -3.7133,1.616 -3.7133,4.1914 0,1.3926 0.6563,2.6082 1.2969,3.1687 0.8321,0 1.1039,0.9121 2.5926,0.9121 2.1105,0 3.4387,-1.3757 3.4387,-4.2558 0,-2.7039 -1.4871,-4.0164 -3.6149,-4.0164 z m -0.0648,7.0242 c -1.2629,0 -1.9676,-1.1531 -1.9676,-2.8797 0,-1.8566 0.7524,-2.8812 1.9832,-2.8812 1.1848,0 2,0.8964 2,2.7531 0,2.0312 -0.7348,3.0078 -2.0156,3.0078"
         style="fill:#ffffff;fill-opacity:1;fill-rule:nonzero;stroke:none;stroke-width:0.1"
         id="path33"
         inkscape:connector-curvature="0" />
      <path
         d="m 64.4016,31.4734 c -0.1125,0 -0.6243,0.0473 -0.6243,0.0473 0,0 -0.4961,-0.0473 -0.5921,-0.0473 -0.1758,0 -0.1926,0.0317 -0.1926,0.2239 0,0.1281 0.0168,0.3359 0.0168,0.4636 v 3.2973 c 0,1.8555 -0.5129,2.7832 -1.8086,2.7832 -1.4711,0 -1.9035,-1.1684 -1.9035,-2.7832 v -3.3449 c 0,-0.0957 0.0156,-0.3836 0.0156,-0.4637 0,-0.1289 -0.0317,-0.1762 -0.2074,-0.1762 -0.1129,0 -0.609,0.0473 -0.609,0.0473 0,0 -0.3988,-0.0473 -0.5434,-0.0473 -0.1597,0 -0.2234,0 -0.2234,0.1606 0,0.1277 0.0152,0.3035 0.0152,0.448 v 3.6953 c 0,0.9602 0.2082,1.3915 0.3844,1.7122 0.0637,0.1121 0.0965,0.2078 0.0965,0.2878 0,0.1282 -0.0965,0.2559 -0.2567,0.3997 l -0.6718,0.6082 c -0.0965,0.0793 -0.1446,0.1601 -0.1446,0.2402 0,0.0644 0.0325,0.1125 0.0973,0.1434 l 0.5434,0.3519 c 0.0804,0.0484 0.0961,0.0652 0.1757,0.0652 0.0637,0 0.1286,-0.05 0.1758,-0.0808 l 0.7684,-0.543 c 0.1117,-0.0805 0.2078,-0.0976 0.2875,-0.0976 0.1121,0 0.2406,0.0808 0.3683,0.1609 0.6411,0.4004 1.2004,0.5605 2.0481,0.5605 1.5523,0 2.9441,-1.0578 2.9441,-3.8086 v -3.28 c 0,-0.3672 0.0325,-0.6235 0.0325,-0.8 0,-0.1766 -0.0325,-0.2239 -0.1922,-0.2239"
         style="fill:#ffffff;fill-opacity:1;fill-rule:nonzero;stroke:none;stroke-width:0.1"
         id="path35"
         inkscape:connector-curvature="0" />
      <path
         d="m 6.41797,7.27734 c -1.89609,0 -3.36055,0.50391 -4.32031,1.70391 -0.26407,0.33633 -0.2875,0.3832 -0.67188,0.3832 H 0.538281 c -0.192187,0 -0.237109,0.07305 -0.23789,0.38555 v 14.2781 c 0.010547,0.0364 0.028906,0.05 0.069531,0.05 0.071484,0 0.263281,-0.073 0.336328,-0.073 0.35898,0 3.2875,0.2644 5.4957,0.2644 3.26446,0 5.06405,-1.416 5.06405,-4.1035 0,-1.3445 -0.6484,-2.593 -1.63162,-3.1687 -0.21641,-0.1196 -0.3125,-0.2161 -0.3125,-0.384 0,-0.1438 0.11953,-0.2395 0.33593,-0.3113 C 11.218,15.8215 12.202,14.2617 12.202,12.3645 12.202,9.05391 9.92188,7.27734 6.41797,7.27734 Z M 5.76953,21.918 c -0.86328,0 -1.7043,-0.0481 -1.96719,-0.0965 C 3.56133,21.7734 3.51406,21.677 3.51406,21.2938 v -3.3356 c 0,-0.2656 0.02422,-0.3852 0.35977,-0.3852 h 1.79961 c 1.27226,0 2.25664,0.5532 2.25664,2.2805 0,1.416 -0.98438,2.0645 -2.16055,2.0645 z M 5.62539,15.1738 H 3.92188 c -0.16797,0 -0.19219,0.2157 -0.31211,0.2157 -0.07149,0 -0.09571,-0.12 -0.09571,-0.5997 v -2.0894 c 0,-1.727 0.74375,-2.9504 2.56797,-2.9504 1.58359,0 2.49609,1.0559 2.49609,2.7832 0,2.0645 -1.34453,2.6406 -2.95273,2.6406"
         style="fill:#ffffff;fill-opacity:1;fill-rule:nonzero;stroke:none;stroke-width:0.1"
         id="path37"
         inkscape:connector-curvature="0" />
      <path
         d="m 27.2258,9.05391 c 0,0 0.048,-0.81641 0.048,-0.96016 0,-0.19219 -0.0722,-0.28789 -0.2402,-0.36016 -0.6719,-0.28828 -1.0801,-0.45625 -1.8234,-0.45625 -1.5602,0 -2.5446,0.67188 -3.3602,2.28008 l -1.9922,3.96018 c -0.1922,0.384 -0.3601,0.5031 -0.768,0.5285 -1.2238,0.0957 -0.9605,0.0711 -1.1039,0.0711 -0.3125,0 -0.3605,-0.168 -0.3605,-0.4793 0,-1.1281 0,-4.48829 0,-5.76017 0,-0.23984 -0.0234,-0.36015 -0.2637,-0.36015 -0.2156,0 -1.416,0.0957 -1.464,0.0957 -0.0719,0 -1.2957,-0.0957 -1.5122,-0.0957 -0.1433,0 -0.1675,0.04765 -0.1675,0.12031 0,0.16797 0.1437,0.43125 0.1437,0.59961 v 15.1922 c 0,0.3117 0.1203,0.4082 0.2883,0.4316 1.368,0.2403 3.8641,0.4082 5.8555,0.4082 3.048,0 5.2086,-1.4636 5.2086,-4.9211 0,-1.9922 -1.0563,-3.6714 -2.5203,-4.3672 -0.2157,-0.0957 -0.2883,-0.1914 -0.2883,-0.2886 0,-0.0703 0.048,-0.1672 0.1203,-0.311 0.4804,-0.9363 1.1523,-2.1121 1.632,-2.9761 0.4805,-0.8403 1.0086,-1.1282 1.4649,-1.1282 0.575,0 0.7918,0.2649 1.0312,0.2649 0.1199,0 0.168,-0.0727 0.168,-0.2168 0,-0.1684 -0.0961,-1.27149 -0.0961,-1.27149 z M 19.7141,21.75 c -0.6961,0 -1.4168,-0.073 -1.8481,-0.1445 -0.216,-0.0235 -0.3363,-0.0723 -0.3363,-0.3836 0,-0.3606 0.0957,-0.8887 0.0957,-1.561 v -2.1836 c 0,-0.5757 0.0726,-0.8164 0.6246,-0.9597 0.3359,-0.0957 0.7922,-0.1438 1.3441,-0.1438 1.5598,0 2.6395,0.9121 2.6395,2.6645 0,1.6797 -0.8398,2.7117 -2.5195,2.7117"
         style="fill:#ffffff;fill-opacity:1;fill-rule:nonzero;stroke:none;stroke-width:0.1"
         id="path39"
         inkscape:connector-curvature="0" />
      <path
         d="m 41.2461,8.83789 c -0.1922,0 -0.8875,0.04766 -0.9359,0.04766 -0.2641,0 -0.3594,-0.04766 -0.6477,-0.26328 -1.3437,-1.00899 -3.1445,-1.34493 -4.8242,-1.34493 -3.7442,0 -5.9758,1.94454 -5.9758,5.35276 0,2.4961 1.3914,3.5515 1.3914,4.3672 0,0.6484 -0.4312,1.4402 -0.4312,2.5679 0,3.1926 2.6164,4.7993 5.6398,4.7993 1.5359,0 3.0949,-0.1907 4.1758,-0.7915 0.2394,-0.1433 0.2875,-0.1914 0.2875,-0.407 0,-0.1687 -0.311,-1.2004 -0.311,-1.2004 0,0 -0.025,-1.4636 -0.1925,-1.4636 0,0 -0.2161,0.048 -0.384,0.1906 -0.6238,0.5047 -1.8242,0.8648 -3,0.8648 -1.7281,0 -2.9039,-0.6719 -2.9039,-2.2554 0,-1.0559 0.3836,-1.5122 1.4156,-1.5122 h 3.7688 c 0.3359,0 0.3593,-0.0484 0.3593,-0.3601 0,-0.168 -0.0476,-1.0559 -0.0476,-1.0559 0,0 0.0715,-0.9597 0.0715,-1.2 0,-0.2883 -0.12,-0.2883 -0.3832,-0.2883 h -4.4411 c -1.0078,0 -1.4386,-0.7437 -1.4386,-1.6793 0,-1.8007 0.9832,-3 3.239,-3 2.0645,0 3.0969,1.2958 3.0969,2.4239 0,0.2156 0.0234,0.2879 0.2156,0.2879 0.168,0 0.9602,-0.0242 0.9602,-0.0242 0,0 1.1031,0.0476 1.2711,0.0476 0.2172,0 0.2648,-0.0234 0.2648,-0.2883 0,-0.3593 -0.0476,-1.6324 -0.0476,-1.6324 0,0 0.0711,-1.53515 0.0711,-1.91914 0,-0.16797 -0.0711,-0.26367 -0.2641,-0.26367"
         style="fill:#ffffff;fill-opacity:1;fill-rule:nonzero;stroke:none;stroke-width:0.1"
         id="path41"
         inkscape:connector-curvature="0" />
      <path
         d="m 54.5094,21.2461 c -0.2649,0 -0.7449,0.0477 -1.4883,0.0477 h -2.0887 c -0.6238,0 -0.6957,-0.2157 -0.6957,-0.625 v -9.2145 c 0,-0.9848 0.3125,-1.2004 0.6957,-1.2004 0.384,0 0.7449,0.3359 0.9606,0.3359 0.1203,0 0.1922,-0.0246 0.1922,-0.2414 0,-0.2144 0,-1.07887 0,-1.07887 0,0 0.1437,-0.95976 0.1437,-1.10351 0,-0.19258 -0.0477,-0.24024 -0.2406,-0.36016 -0.552,-0.33633 -1.775,-0.52852 -2.3031,-0.52852 -1.8969,0 -2.8321,0.98438 -2.8321,3.02466 v 9.5515 c 0,0.336 0.2633,0.9602 0.2633,1.2004 0,0.1434 -0.1437,0.2637 -0.4562,0.2637 -0.2391,0 -1.775,-0.0238 -1.8227,-0.0238 -0.3605,0 -1.9687,-0.0965 -2.1602,-0.0965 -0.241,0 -0.2882,0.0965 -0.2882,0.2648 0,0.191 0.0472,1.2957 0.0472,1.2957 0,0 -0.0715,0.8152 -0.0715,1.0078 0,0.2883 0.0715,0.336 0.3836,0.336 h 10.4161 c 1.0566,0 1.2246,0.2879 1.4878,0.2879 0.0485,0 0.145,-0.025 0.145,-0.1434 0,-0.2649 -0.0489,-1.2488 -0.0489,-1.2488 0,0 0.0723,-1.2715 0.0723,-1.4641 0,-0.2394 -0.0723,-0.2871 -0.3113,-0.2871"
         style="fill:#ffffff;fill-opacity:1;fill-rule:nonzero;stroke:none;stroke-width:0.1"
         id="path43"
         inkscape:connector-curvature="0" />
      <path
         d="m 70.1055,7.71016 c -0.4551,-0.24063 -1.295,-0.43282 -1.92,-0.43282 -1.2476,0 -2.1839,0.55196 -2.6402,2.08711 l -0.7195,2.37695 c -0.0731,0.2637 -0.0731,1.032 -0.6477,1.032 -0.2168,0 -0.8406,-0.3359 -1.1765,-0.3359 l -2.4961,-0.0234 c -0.552,0 -0.7203,-0.0496 -0.8879,-0.6243 L 58.7297,8.74141 C 58.4648,7.80586 58.5852,7.37383 58.1773,7.37383 c -0.2394,0 -1.3437,0.16836 -1.3437,0.16836 h -1.6563 c -0.216,0 -0.2394,0.07109 -0.2394,0.23906 0,0.21602 0.216,0.64844 0.4074,1.24687 l 4.0086,13.05778 c 0.5273,1.7039 0.2391,2.0157 1.2961,2.0157 0.2156,0 1.4391,-0.0735 1.4391,-0.0735 0,0 1.4406,0.0735 1.5609,0.0735 0.7195,0 0.8148,-0.0235 1.3438,-1.7278 l 3.3363,-10.5601 c 0.3359,-1.0559 0.6484,-1.416 1.1269,-1.416 0.2879,0 0.5528,0.1675 0.6719,0.1675 0.1199,0 0.1691,-0.0718 0.1691,-0.2632 0,-0.2407 -0.0722,-1.00825 -0.0722,-1.00825 0,0 0.1199,-0.98398 0.1199,-1.2 0,-0.24023 -0.0234,-0.26445 -0.2402,-0.38359 z m -6.1676,7.84724 -1.0801,3.5766 c -0.5039,1.6797 -0.6719,1.7762 -0.9601,1.7762 -0.2399,0 0.0234,-0.3848 -0.3836,-1.7762 L 60.482,15.5098 c -0.025,-0.0723 -0.0484,-0.1453 -0.0484,-0.1922 0,-0.168 0.1203,-0.2406 0.3844,-0.2406 h 2.832 c 0.2633,0 0.3359,0.0492 0.3359,0.1691 0,0.0715 0,0.168 -0.048,0.3113"
         style="fill:#ffffff;fill-opacity:1;fill-rule:nonzero;stroke:none;stroke-width:0.1"
         id="path45"
         inkscape:connector-curvature="0" />
      <path
         d="m 84.0793,14.55 v -3.7922 c 0,0 0.0477,-1.27225 0.0477,-1.82421 0,-0.31132 -0.0965,-0.31132 -0.2645,-0.31132 -0.216,0 -1.3203,0.07031 -1.632,0.07031 -0.2871,0 -0.5047,-0.07031 -0.6485,-0.19063 -0.9121,-0.76836 -2.4004,-1.22461 -4.032,-1.22461 -3.9113,0 -6.1914,2.30469 -6.1914,8.44846 0,5.9512 2.8316,8.6387 6.4324,8.6387 1.4629,0 3,-0.3833 3.8633,-1.1504 0.1445,-0.145 0.3125,-0.2168 0.5273,-0.2168 0.3125,0 1.0567,0.0234 1.2254,0.0234 0.095,0 0.1672,-0.1191 0.1672,-0.2148 0,-0.2161 -0.0242,-1.8723 -0.0242,-1.8723 0,0 0.0477,-1.8242 0.0477,-2.0156 0,-0.241 -0.0235,-0.2879 -0.2391,-0.2879 -0.1684,0 -1.0793,0.0469 -1.0793,0.0469 L 81.198,18.5574 c -0.1441,0 -0.239,0.0246 -0.239,0.1926 0,1.8477 -1.2727,2.7832 -2.6172,2.7832 -2.7844,0 -3.3113,-2.9512 -3.3113,-5.6633 0,-5.0887 1.6316,-5.7129 3.2644,-5.7129 1.8242,0 2.6875,0.8403 2.6875,2.0168 v 0.5266 c 0,0.409 -0.1445,0.625 -0.5273,0.625 h -1.2012 c -0.2402,0 -0.4551,-0.0957 -0.5519,-0.0957 0,0 -0.1676,0.0723 -0.1676,0.1441 0,0.2871 0.073,1.1992 0.073,1.1992 0,0 -0.0254,0.7676 -0.0254,1.009 0,0.1184 0.0489,0.216 0.3614,0.216 h 5.039 c 0.2891,0 0.384,-0.0976 0.384,-0.216 0,-0.1679 -0.2871,-0.6238 -0.2871,-1.032"
         style="fill:#ffffff;fill-opacity:1;fill-rule:nonzero;stroke:none;stroke-width:0.1"
         id="path47"
         inkscape:connector-curvature="0" />
      <path
         d="m 101.624,7.80586 c -0.456,-0.26367 -1.344,-0.52852 -2.04,-0.52852 -1.8477,0 -2.95,1.00782 -2.95,3.45626 v 5.4234 c 0,3.4809 -0.6008,5.2325 -3.0969,5.2325 -2.4246,0 -3.0234,-2.2079 -3.0234,-5.2079 V 8.83789 c 0,-0.21562 0.0234,-0.7207 0.0234,-0.88867 0,-0.35938 -0.0488,-0.43164 -0.3125,-0.43164 -0.1199,0 -1.3672,0.0957 -1.3672,0.0957 0,0 -1.2969,-0.0957 -1.5117,-0.0957 -0.168,0 -0.241,0.12031 -0.241,0.36015 0,0.26407 0.023,0.62422 0.023,0.91211 v 7.84806 c 0,1.3672 0.218,2.5918 0.6723,3.4805 0.0965,0.1914 0.2645,0.5996 0.2645,0.8152 0,0.2637 -0.1446,0.4805 -0.4559,0.7684 l -1.0324,0.9359 c -0.0723,0.0469 -0.3117,0.3355 -0.336,0.3828 -0.0468,0.0977 -0.0957,0.1934 -0.0957,0.2652 0,0.0957 0.0489,0.1684 0.1692,0.2395 l 0.9824,0.6242 c 0.0496,0.0242 0.5039,0.3125 0.5535,0.3359 0.0945,0.0489 0.168,0.0489 0.2629,0.0489 0.1434,0 0.2645,-0.0489 0.409,-0.1449 l 1.1281,-0.8641 c 0.1902,-0.1438 0.407,-0.2395 0.5984,-0.2395 0.2403,0 0.6961,0.1684 0.8887,0.2641 0.9121,0.4551 1.7996,0.8145 2.8809,0.8145 3.5508,0 6.0004,-1.8469 6.0004,-7.6067 v -5.4016 c 0,-0.7664 0.262,-1.1023 0.671,-1.1023 0.479,0 0.743,0.3359 0.961,0.3359 0.142,0 0.192,-0.0476 0.192,-0.2644 0,-0.216 -0.073,-1.12813 -0.073,-1.12813 0,0 0.096,-0.7918 0.096,-1.03125 0,-0.19258 -0.049,-0.24024 -0.241,-0.36016"
         style="fill:#ffffff;fill-opacity:1;fill-rule:nonzero;stroke:none;stroke-width:0.1"
         id="path49"
         inkscape:connector-curvature="0" />
      <path
         d="m 110.052,10.2062 c -2.255,0 -3.238,1.1993 -3.238,3 0,0.9356 0.431,1.6793 1.439,1.6793 h 4.44 c 0.046,0 0.082,0.0024 0.118,0.0024 v 2.8941 c -0.036,0.0032 -0.068,0.0078 -0.118,0.0078 h -3.768 c -1.033,0 -1.416,0.4563 -1.416,1.5122 0,1.5835 1.176,2.2554 2.903,2.2554 0.869,0 1.745,-0.198 2.399,-0.5035 v 2.9707 c -0.904,0.2399 -1.939,0.3399 -2.974,0.3399 -3.023,0 -5.641,-1.6067 -5.641,-4.7993 0,-1.1277 0.433,-1.9195 0.433,-2.5679 0,-0.8157 -1.391,-1.8711 -1.391,-4.3672 0,-3.40822 2.231,-5.35276 5.974,-5.35276 1.211,0 2.481,0.17891 3.599,0.65352 V 11.532 c -0.452,-0.7312 -1.365,-1.3258 -2.759,-1.3258"
         style="fill:#ffffff;fill-opacity:1;fill-rule:nonzero;stroke:none;stroke-width:0.1"
         id="path51"
         inkscape:connector-curvature="0" />
    </g>
  </g>
</svg>
